<?xml version="1.0" encoding="UTF-8"?>
<!-- Generator: visioncortex VTracer 0.6.3 -->
<svg version="1.1" xmlns="http://www.w3.org/2000/svg" width="1280" height="355">
<path d="M0 0 C0.99 -0.01 1.98 -0.01 3 -0.02 C5.09 -0.03 7.17 -0.03 9.26 -0.04 C12.4 -0.05 15.54 -0.08 18.68 -0.11 C32.96 -0.18 45.54 1.22 59.3 5.2 C60.84 5.53 62.38 5.85 63.93 6.14 C67.61 6.94 70.11 8.18 73.3 10.2 C75.74 11.24 78.2 12.2 80.67 13.16 C83.96 14.46 87.17 15.9 90.39 17.37 C92.46 18.3 92.46 18.3 95.3 19.2 C95.3 19.86 95.3 20.52 95.3 21.2 C95.85 21.33 96.4 21.45 96.96 21.58 C103.07 23.25 106.68 25.99 111.23 30.34 C113.7 32.56 116.29 33.84 119.3 35.2 C120.32 36.18 121.33 37.18 122.3 38.2 C124.4 39.38 124.4 39.38 126.3 40.2 C126.3 40.86 126.3 41.52 126.3 42.2 C126.9 42.47 127.5 42.74 128.12 43.02 C130.3 44.2 131.72 45.3 133.3 47.2 C133.3 47.86 133.3 48.52 133.3 49.2 C133.88 49.45 134.46 49.7 135.05 49.95 C137.63 51.39 139.37 52.99 141.3 55.2 C141.3 55.86 141.3 56.52 141.3 57.2 C141.96 57.2 142.62 57.2 143.3 57.2 C143.3 57.86 143.3 58.52 143.3 59.2 C143.96 59.2 144.62 59.2 145.3 59.2 C150.09 63.72 153.88 69.24 157.56 74.66 C158.68 76.29 159.83 77.89 161.02 79.46 C165.86 85.93 169.12 92.83 172.41 100.15 C173.62 102.82 174.93 105.34 176.44 107.86 C178.18 110.98 179.16 113.61 179.99 117.08 C180.59 120.43 180.59 120.43 182.3 123.2 C182.35 124.87 182.35 126.54 182.3 128.2 C182.96 128.2 183.62 128.2 184.3 128.2 C184.45 129.34 184.59 130.47 184.74 131.64 C184.92 135.01 184.92 135.01 186.3 136.2 C189.37 149.26 189.72 162.17 189.59 175.53 C189.55 178.75 189.54 181.98 189.54 185.2 C189.53 187.25 189.52 189.31 189.51 191.36 C189.5 192.32 189.5 193.28 189.49 194.27 C189.48 195.6 189.48 195.6 189.47 196.95 C189.46 198.11 189.46 198.11 189.45 199.3 C189.3 201.2 189.3 201.2 188.3 203.2 C187.98 205.74 187.7 208.28 187.43 210.83 C186.85 215.88 186.22 220.46 184.16 225.15 C182.99 227.96 182.17 230.85 181.3 233.77 C179.2 240.67 176.53 246.92 173.17 253.31 C172.28 255.25 171.76 257.12 171.3 259.2 C170.64 259.2 169.98 259.2 169.3 259.2 C169.14 260.3 169.14 260.3 168.98 261.43 C168.26 264.38 167.27 266.16 165.55 268.64 C165.02 269.42 164.48 270.2 163.93 271 C162.54 272.88 161.13 274.68 159.62 276.45 C157.28 279.08 157.28 279.08 155.74 281.83 C154.2 284.37 152.4 286.11 150.3 288.2 C149.65 289.35 149.65 289.35 148.97 290.52 C147.13 293.49 145.06 295.71 142.59 298.18 C141.68 299.1 140.76 300.02 139.82 300.96 C139.35 301.43 138.87 301.9 138.38 302.39 C136.93 303.82 135.5 305.27 134.06 306.72 C133.14 307.63 132.23 308.55 131.28 309.49 C130.45 310.32 129.61 311.16 128.75 312.01 C126.39 314.13 124.04 315.61 121.3 317.2 C120.13 318.41 120.13 318.41 118.93 319.64 C115.84 322.66 111.83 326.2 107.3 326.2 C107.3 326.86 107.3 327.52 107.3 328.2 C104.43 329.84 101.56 331.46 98.68 333.08 C97.47 333.77 97.47 333.77 96.23 334.47 C91.99 336.85 87.99 338.81 83.3 340.2 C82.42 340.68 81.53 341.15 80.62 341.64 C76.81 343.44 73.04 344.4 68.97 345.45 C66.1 346.19 66.1 346.19 62.74 347.77 C59.08 349.3 55.67 350.03 51.79 350.73 C49.52 351.16 47.34 351.71 45.12 352.33 C41.37 353.19 38.13 353.2 34.3 353.2 C33.31 353.86 32.32 354.52 31.3 355.2 C29.39 355.44 29.39 355.44 27.2 355.43 C26.38 355.43 25.56 355.43 24.71 355.43 C23.39 355.41 23.39 355.41 22.04 355.4 C21.14 355.4 20.23 355.39 19.3 355.39 C16.4 355.38 13.51 355.35 10.62 355.33 C8.66 355.32 6.69 355.31 4.73 355.3 C-0.08 355.28 -4.89 355.24 -9.7 355.2 C-10.03 354.54 -10.36 353.88 -10.7 353.2 C-13.67 353.2 -16.64 353.2 -19.7 353.2 C-19.7 352.54 -19.7 351.88 -19.7 351.2 C-20.25 351.24 -20.81 351.27 -21.38 351.31 C-22.15 351.34 -22.91 351.36 -23.7 351.39 C-24.44 351.43 -25.18 351.46 -25.95 351.5 C-29.04 351.17 -31.65 350.18 -34.54 349.03 C-38.13 347.66 -41.81 346.63 -45.51 345.58 C-53.48 343.27 -53.48 343.27 -56.7 342.2 C-56.7 341.54 -56.7 340.88 -56.7 340.2 C-57.87 340.06 -59.05 339.91 -60.26 339.77 C-67.22 338.25 -72.93 334.11 -78.86 330.34 C-80.73 329.18 -82.63 328.09 -84.55 327.01 C-87.17 325.5 -88.67 324.32 -90.7 322.2 C-91.45 321.76 -92.2 321.31 -92.98 320.85 C-99.77 316.74 -105.77 311.4 -111.22 305.65 C-112.84 303.97 -112.84 303.97 -115.7 302.2 C-115.7 301.54 -115.7 300.88 -115.7 300.2 C-116.36 300.2 -117.02 300.2 -117.7 300.2 C-119.17 298.78 -119.17 298.78 -120.76 296.89 C-121.29 296.28 -121.81 295.66 -122.36 295.03 C-123.7 293.2 -123.7 293.2 -124.7 290.2 C-125.36 289.87 -126.02 289.54 -126.7 289.2 C-126.7 288.54 -126.7 287.88 -126.7 287.2 C-127.36 287.2 -128.02 287.2 -128.7 287.2 C-129.91 285.78 -129.91 285.78 -131.2 283.89 C-131.83 282.97 -131.83 282.97 -132.48 282.03 C-135.7 277.21 -135.7 277.21 -135.7 274.2 C-136.36 274.2 -137.02 274.2 -137.7 274.2 C-138.36 272.55 -139.02 270.9 -139.7 269.2 C-140.36 269.2 -141.02 269.2 -141.7 269.2 C-142.05 268.3 -142.4 267.39 -142.76 266.45 C-144.27 262.88 -146.19 259.65 -148.2 256.33 C-150.77 252.01 -152.67 247.98 -154.07 243.16 C-154.72 240.93 -154.72 240.93 -156.38 237.95 C-157.75 235.08 -157.97 233.34 -157.7 230.2 C-158.36 230.2 -159.02 230.2 -159.7 230.2 C-159.82 229.03 -159.94 227.85 -160.07 226.64 C-160.57 222.68 -161.56 219.04 -162.7 215.2 C-167.88 196.14 -167.35 176.06 -166.26 156.45 C-166.22 155.73 -166.18 155.01 -166.14 154.27 C-165.82 149.33 -165.82 149.33 -164.7 148.2 C-164.49 146.71 -164.33 145.21 -164.2 143.7 C-163.81 139.31 -163.81 139.31 -162.7 138.2 C-162.45 136.05 -162.31 133.89 -162.17 131.72 C-161.57 128.54 -160.14 126.09 -158.7 123.2 C-158.13 120.99 -157.61 118.75 -157.13 116.52 C-154.95 107.33 -150.39 99.42 -145.82 91.24 C-144.36 88.6 -143.02 85.91 -141.7 83.2 C-141.04 83.2 -140.38 83.2 -139.7 83.2 C-139.45 82.5 -139.2 81.8 -138.95 81.08 C-135.93 74.14 -130.66 66.99 -125.17 61.75 C-123.56 60.17 -123.56 60.17 -122.28 57.8 C-120.56 54.99 -118.66 52.9 -116.32 50.58 C-115.19 49.45 -115.19 49.45 -114.05 48.29 C-111.71 46.22 -109.38 44.77 -106.7 43.2 C-105.35 42.11 -104.04 40.99 -102.76 39.83 C-102.07 39.22 -101.38 38.6 -100.67 37.97 C-100.02 37.39 -99.37 36.8 -98.7 36.2 C-88.59 27.2 -88.59 27.2 -83.7 27.2 C-83.7 26.54 -83.7 25.88 -83.7 25.2 C-80.8 23.76 -77.91 22.31 -75.02 20.87 C-72.94 19.83 -70.87 18.77 -68.81 17.69 C-67.95 17.24 -67.09 16.79 -66.2 16.33 C-65.42 15.92 -64.65 15.51 -63.85 15.09 C-61.7 14.2 -61.7 14.2 -57.7 14.2 C-57.7 13.54 -57.7 12.88 -57.7 12.2 C-51.7 10.2 -51.7 10.2 -49.47 9.47 C-44.72 7.91 -44.72 7.91 -40.07 6.08 C-37 4.95 -33.93 4.64 -30.7 4.2 C-30.37 3.87 -30.04 3.54 -29.7 3.2 C-28.18 3.13 -26.65 3.12 -25.13 3.14 C-24.31 3.15 -23.48 3.16 -22.63 3.17 C-21.99 3.18 -21.35 3.19 -20.7 3.2 C-20.7 2.54 -20.7 1.88 -20.7 1.2 C-13.78 0.4 -6.96 0.03 0 0 Z M-22.83 14.42 C-25.97 15.28 -29.14 15.96 -32.32 16.64 C-38.07 17.95 -43.29 19.89 -48.7 22.2 C-50.13 22.75 -51.57 23.3 -53.01 23.83 C-55.92 24.91 -58.81 26.03 -61.7 27.2 C-61.7 27.86 -61.7 28.52 -61.7 29.2 C-62.28 29.33 -62.86 29.46 -63.45 29.59 C-69.44 31.23 -74.6 34.77 -79.7 38.2 C-80.69 38.53 -81.68 38.86 -82.7 39.2 C-83.03 39.86 -83.36 40.52 -83.7 41.2 C-84.46 41.49 -85.22 41.78 -86.01 42.08 C-89.01 43.34 -90.61 44.73 -92.7 47.2 C-92.7 47.86 -92.7 48.52 -92.7 49.2 C-93.43 49.45 -94.16 49.69 -94.91 49.94 C-100 52.24 -103.54 56.54 -107.45 60.45 C-108.32 61.3 -109.2 62.15 -110.1 63.02 C-110.93 63.85 -111.76 64.68 -112.62 65.53 C-113.38 66.28 -114.14 67.03 -114.92 67.81 C-117.04 70.67 -117.46 72.67 -117.7 76.2 C-116.86 79.12 -116.86 79.12 -115.45 81.95 C-113.73 85.78 -112.22 89.48 -111.07 93.52 C-109.92 97.58 -108.44 101.35 -106.7 105.2 C-106.48 105.83 -106.27 106.47 -106.05 107.12 C-105.34 109.29 -105.34 109.29 -103.7 112.2 C-100.66 113.43 -100.66 113.43 -97.7 114.2 C-97.68 115.59 -97.68 115.59 -97.66 117 C-97.57 125.68 -97.46 134.36 -97.36 143.04 C-97.3 147.51 -97.25 151.97 -97.2 156.44 C-97.15 160.74 -97.1 165.05 -97.04 169.35 C-97.02 171 -97 172.64 -96.99 174.29 C-96.96 176.59 -96.93 178.88 -96.9 181.18 C-96.88 183.15 -96.88 183.15 -96.85 185.15 C-96.9 188.12 -96.9 188.12 -95.7 190.2 C-65.67 190.2 -35.64 190.2 -4.7 190.2 C-4.37 186.24 -4.04 182.28 -3.7 178.2 C2.3 178.2 2.3 178.2 4.12 179.7 C5.76 183.17 5.88 186.39 6.3 190.2 C9.28 190.23 12.26 190.25 15.24 190.27 C16.09 190.27 16.94 190.28 17.82 190.29 C18.63 190.29 19.44 190.3 20.27 190.3 C21.02 190.31 21.77 190.31 22.54 190.32 C24.33 190.4 24.33 190.4 25.3 189.2 C25.54 187.52 25.72 185.83 25.87 184.14 C25.95 183.22 26.03 182.3 26.12 181.36 C26.18 180.65 26.24 179.93 26.3 179.2 C28.28 178.54 30.26 177.88 32.3 177.2 C32.43 177.97 32.55 178.74 32.67 179.54 C32.84 180.54 33.01 181.54 33.18 182.58 C33.34 183.58 33.5 184.57 33.67 185.6 C34.1 188.35 34.1 188.35 36.3 190.2 C38.96 190.39 41.5 190.45 44.15 190.43 C44.96 190.43 45.77 190.43 46.6 190.43 C49.29 190.43 51.97 190.41 54.66 190.4 C56.51 190.39 58.37 190.39 60.23 190.39 C65.13 190.38 70.02 190.36 74.92 190.34 C79.91 190.32 84.9 190.31 89.9 190.3 C99.7 190.28 109.5 190.25 119.3 190.2 C119.31 189.25 119.33 188.3 119.34 187.32 C119.43 178.39 119.54 169.46 119.64 160.53 C119.7 155.93 119.75 151.34 119.8 146.75 C119.85 142.32 119.9 137.89 119.96 133.46 C119.98 131.77 120 130.08 120.01 128.38 C120.04 126.02 120.07 123.66 120.1 121.29 C120.11 120.59 120.11 119.88 120.12 119.15 C120.19 114.32 120.19 114.32 121.3 113.2 C123.63 112.84 125.97 112.5 128.3 112.2 C128.63 111.27 128.96 110.34 129.29 109.39 C131.47 103.24 133.68 97.17 136.3 91.2 C137.1 89.18 137.86 87.15 138.61 85.11 C139.22 83.42 139.89 81.75 140.55 80.08 C141.81 75.28 140.75 71.44 138.3 67.2 C137.64 67.2 136.98 67.2 136.3 67.2 C136.3 66.54 136.3 65.88 136.3 65.2 C135.64 65.2 134.98 65.2 134.3 65.2 C134.08 64.42 133.85 63.64 133.62 62.83 C132.52 59.98 132.52 59.98 129.68 58.89 C128.5 58.55 128.5 58.55 127.3 58.2 C127.3 57.54 127.3 56.88 127.3 56.2 C126.64 56.2 125.98 56.2 125.3 56.2 C125.3 55.54 125.3 54.88 125.3 54.2 C122.67 51.8 122.67 51.8 119.3 51.2 C119.3 50.54 119.3 49.88 119.3 49.2 C118.64 49.2 117.98 49.2 117.3 49.2 C117.3 48.54 117.3 47.88 117.3 47.2 C115.33 45.83 113.33 44.5 111.3 43.2 C110.46 42.52 109.61 41.84 108.74 41.14 C106.35 39.24 103.94 37.75 101.3 36.2 C91.3 30.2 91.3 30.2 88.8 28.64 C86.35 27.23 83.95 26.16 81.3 25.14 C80.48 24.82 79.65 24.5 78.8 24.17 C77.98 23.85 77.15 23.53 76.3 23.2 C75.47 22.86 74.63 22.53 73.77 22.18 C71.47 21.27 69.16 20.47 66.8 19.7 C64.49 18.95 62.26 18.19 60.04 17.21 C56.46 15.89 52.87 15.28 49.12 14.64 C41.55 13.33 41.55 13.33 39.3 12.2 C37.14 12 34.97 11.84 32.8 11.7 C26.53 11.31 26.53 11.31 24.3 10.2 C8.48 9.53 -7.5 10.18 -22.83 14.42 Z M-103.7 53.2 C-104.03 53.86 -104.36 54.52 -104.7 55.2 C-104.04 55.2 -103.38 55.2 -102.7 55.2 C-103.03 54.54 -103.36 53.88 -103.7 53.2 Z M-114.7 63.2 C-114.37 63.86 -114.04 64.52 -113.7 65.2 C-113.37 64.54 -113.04 63.88 -112.7 63.2 C-113.36 63.2 -114.02 63.2 -114.7 63.2 Z M-130.7 84.2 C-129.7 86.2 -129.7 86.2 -129.7 86.2 Z M-128.7 84.2 C-127.7 86.2 -127.7 86.2 -127.7 86.2 Z M-125.7 84.2 C-128.67 86.97 -130.71 89.66 -132.7 93.2 C-133.25 94.07 -133.81 94.94 -134.38 95.83 C-135.94 98.19 -135.94 98.19 -135.7 101.2 C-136.36 101.2 -137.02 101.2 -137.7 101.2 C-137.7 102.52 -137.7 103.84 -137.7 105.2 C-138.36 105.2 -139.02 105.2 -139.7 105.2 C-140.36 107.18 -141.02 109.16 -141.7 111.2 C-139.09 112.51 -137.17 112.32 -134.25 112.3 C-133.17 112.3 -132.1 112.29 -130.99 112.29 C-129.3 112.28 -129.3 112.28 -127.57 112.27 C-125.87 112.26 -125.87 112.26 -124.13 112.25 C-121.32 112.24 -118.51 112.22 -115.7 112.2 C-116.38 106.68 -116.38 106.68 -118.01 101.39 C-118.27 100.73 -118.53 100.07 -118.8 99.39 C-119.1 98.67 -119.39 97.95 -119.7 97.2 C-120.2 95.9 -120.2 95.9 -120.71 94.58 C-122.16 90.85 -123.47 87.55 -125.7 84.2 Z M150.3 84.2 C148.01 87.7 146.46 91.17 145.06 95.09 C144.56 96.5 144.03 97.9 143.48 99.29 C141.93 103.24 140.72 106.94 140.3 111.2 C141.34 112.46 141.34 112.46 143.62 112.32 C145.12 112.31 145.12 112.31 146.65 112.3 C147.73 112.3 148.81 112.29 149.92 112.29 C151.06 112.28 152.2 112.27 153.37 112.27 C155.08 112.26 155.08 112.26 156.82 112.25 C159.65 112.24 162.48 112.22 165.3 112.2 C163.73 106.49 162.1 101.24 159.12 96.08 C158.59 95.15 158.06 94.22 157.51 93.26 C157.11 92.58 156.72 91.9 156.3 91.2 C155.64 91.2 154.98 91.2 154.3 91.2 C154.02 90.23 153.73 89.26 153.43 88.27 C152.66 85.1 152.66 85.1 150.3 84.2 Z M-145.7 123.2 C-148.9 128.01 -151.59 134.33 -150.7 140.2 C-148.94 142.36 -148.94 142.36 -146.86 142.44 C-145.75 142.44 -145.75 142.44 -144.61 142.43 C-143.77 142.43 -142.93 142.43 -142.07 142.43 C-141.16 142.42 -140.25 142.41 -139.31 142.4 C-137.92 142.39 -137.92 142.39 -136.5 142.39 C-133.52 142.38 -130.55 142.35 -127.57 142.33 C-125.56 142.32 -123.54 142.31 -121.53 142.3 C-116.58 142.28 -111.64 142.24 -106.7 142.2 C-106.67 139.22 -106.65 136.24 -106.63 133.27 C-106.62 131.99 -106.62 131.99 -106.61 130.69 C-106.6 129.88 -106.6 129.07 -106.6 128.24 C-106.59 127.49 -106.59 126.74 -106.58 125.97 C-106.5 124.18 -106.5 124.18 -107.7 123.2 C-110.48 123.08 -113.25 123.01 -116.04 123 C-116.87 122.99 -117.71 122.99 -118.57 122.98 C-120.35 122.97 -122.12 122.97 -123.9 122.96 C-126.62 122.95 -129.34 122.92 -132.06 122.89 C-133.78 122.88 -135.5 122.88 -137.22 122.88 C-138.04 122.86 -138.86 122.85 -139.7 122.84 C-142.23 122.81 -142.23 122.81 -145.7 123.2 Z M130.3 125.2 C130.11 127.75 130.03 130.16 130.05 132.7 C130.05 133.39 130.04 134.08 130.03 134.79 C129.93 138.96 129.93 138.96 132.3 142.2 C134.2 142.49 134.2 142.49 136.39 142.43 C137.23 142.43 138.07 142.43 138.93 142.43 C139.84 142.42 140.75 142.41 141.69 142.4 C143.08 142.39 143.08 142.39 144.5 142.39 C147.48 142.38 150.45 142.35 153.43 142.33 C155.44 142.32 157.46 142.31 159.47 142.3 C164.42 142.28 169.36 142.24 174.3 142.2 C174.3 135.64 173.2 128.1 168.3 123.2 C165.66 123.09 163.05 123.04 160.4 123.04 C159.21 123.03 159.21 123.03 158 123.03 C156.32 123.02 154.64 123.02 152.96 123.02 C150.38 123.02 147.81 123 145.23 122.98 C143.6 122.98 141.97 122.97 140.34 122.97 C139.57 122.97 138.79 122.96 137.99 122.95 C133.69 122.81 133.69 122.81 130.3 125.2 Z M-153.7 153.2 C-159.18 164.17 -158.16 182.83 -154.7 194.2 C-153.71 195.41 -153.71 195.41 -151.79 195.32 C-150.96 195.32 -150.13 195.32 -149.27 195.32 C-148.33 195.32 -147.39 195.32 -146.42 195.32 C-145.39 195.31 -144.37 195.31 -143.32 195.3 C-141.75 195.3 -141.75 195.3 -140.16 195.3 C-136.82 195.29 -133.48 195.28 -130.13 195.27 C-127.87 195.26 -125.61 195.26 -123.35 195.25 C-117.8 195.24 -112.25 195.22 -106.7 195.2 C-106.67 189.38 -106.65 183.56 -106.64 177.74 C-106.64 175.76 -106.63 173.78 -106.62 171.8 C-106.61 168.95 -106.6 166.11 -106.6 163.27 C-106.59 162.38 -106.59 161.49 -106.58 160.57 C-106.58 158.45 -106.63 156.32 -106.7 154.2 C-107.68 153 -107.68 153 -109.56 153.08 C-110.78 153.09 -110.78 153.09 -112.03 153.09 C-112.95 153.09 -113.87 153.09 -114.82 153.09 C-116.32 153.1 -116.32 153.1 -117.86 153.11 C-119.38 153.11 -119.38 153.11 -120.95 153.11 C-124.22 153.12 -127.49 153.13 -130.76 153.14 C-132.97 153.15 -135.18 153.15 -137.39 153.15 C-142.83 153.17 -148.26 153.18 -153.7 153.2 Z M131.3 153.2 C129.64 156.53 130.16 160.24 130.17 163.89 C130.17 164.75 130.17 165.62 130.17 166.5 C130.17 168.32 130.17 170.14 130.17 171.96 C130.18 174.76 130.17 177.55 130.17 180.35 C130.17 182.11 130.17 183.88 130.17 185.64 C130.17 186.49 130.17 187.33 130.17 188.19 C129.81 192.01 129.81 192.01 131.3 195.2 C132.78 195.3 134.26 195.32 135.73 195.32 C136.67 195.32 137.61 195.32 138.58 195.32 C139.61 195.31 140.63 195.31 141.68 195.3 C143.25 195.3 143.25 195.3 144.84 195.3 C148.18 195.29 151.52 195.28 154.87 195.27 C157.13 195.26 159.39 195.26 161.65 195.25 C167.2 195.24 172.75 195.22 178.3 195.2 C178.33 189.38 178.35 183.56 178.36 177.74 C178.36 175.76 178.37 173.78 178.38 171.8 C178.39 168.95 178.4 166.11 178.4 163.27 C178.41 162.38 178.41 161.49 178.42 160.57 C178.42 158.45 178.37 156.32 178.3 154.2 C177.32 153 177.32 153 175.44 153.08 C174.22 153.09 174.22 153.09 172.97 153.09 C172.05 153.09 171.13 153.09 170.18 153.09 C168.68 153.1 168.68 153.1 167.14 153.11 C165.62 153.11 165.62 153.11 164.05 153.11 C160.78 153.12 157.51 153.13 154.24 153.14 C152.03 153.15 149.82 153.15 147.61 153.15 C142.17 153.17 136.74 153.18 131.3 153.2 Z M4.3 182.2 C4.3 184.18 4.3 186.16 4.3 188.2 C4.63 188.2 4.96 188.2 5.3 188.2 C5.3 186.22 5.3 184.24 5.3 182.2 C4.97 182.2 4.64 182.2 4.3 182.2 Z M-94.7 199.2 C-95.96 201.73 -95.79 203.52 -95.76 206.33 C-95.75 207.24 -95.74 208.15 -95.73 209.09 C-95.72 209.78 -95.71 210.48 -95.7 211.2 C-92.26 212.92 -88.31 212.32 -84.53 212.3 C-83.62 212.3 -82.72 212.3 -81.78 212.3 C-78.88 212.29 -75.97 212.28 -73.07 212.27 C-71.1 212.26 -69.14 212.26 -67.17 212.25 C-62.35 212.24 -57.52 212.22 -52.7 212.2 C-52.67 210.22 -52.65 208.24 -52.63 206.27 C-52.62 205.16 -52.61 204.06 -52.6 202.93 C-52.38 200.29 -52.38 200.29 -53.7 199.2 C-56.73 199.11 -59.73 199.09 -62.76 199.11 C-63.67 199.11 -64.58 199.11 -65.52 199.11 C-68.43 199.12 -71.34 199.13 -74.26 199.14 C-76.23 199.15 -78.2 199.15 -80.17 199.15 C-85.01 199.17 -89.85 199.18 -94.7 199.2 Z M-40.7 199.2 C-42.52 202.47 -42.52 202.47 -41.7 212.2 C-29.49 212.2 -17.28 212.2 -4.7 212.2 C-4.7 208.24 -4.7 204.28 -4.7 200.2 C-5.85 198.82 -5.85 198.82 -9.02 199.09 C-10.5 199.09 -11.97 199.1 -13.45 199.11 C-14.22 199.11 -15 199.11 -15.8 199.11 C-18.29 199.12 -20.77 199.13 -23.26 199.14 C-24.94 199.15 -26.62 199.15 -28.3 199.15 C-32.43 199.17 -36.56 199.18 -40.7 199.2 Z M5.3 199.2 C5.63 203.49 5.96 207.78 6.3 212.2 C12.57 212.2 18.84 212.2 25.3 212.2 C25.35 210.43 25.39 208.66 25.43 206.83 C25.45 205.83 25.48 204.83 25.5 203.8 C25.58 201.04 25.58 201.04 23.3 199.2 C21.37 198.93 21.37 198.93 19.17 199.01 C18.37 199.01 17.56 199.02 16.73 199.03 C15.47 199.05 15.47 199.05 14.18 199.08 C13.33 199.09 12.48 199.1 11.61 199.11 C9.51 199.13 7.4 199.16 5.3 199.2 Z M34.3 201.2 C34.06 203.64 34.06 203.64 34.18 206.33 C34.2 207.24 34.22 208.15 34.23 209.09 C34.26 209.78 34.28 210.48 34.3 211.2 C37.53 212.82 41.05 212.32 44.59 212.3 C45.41 212.3 46.23 212.3 47.07 212.3 C49.69 212.29 52.31 212.28 54.93 212.27 C56.7 212.26 58.48 212.26 60.25 212.25 C64.6 212.24 68.95 212.22 73.3 212.2 C73.36 210.41 73.4 208.62 73.43 206.83 C73.45 205.83 73.48 204.83 73.5 203.8 C73.58 201.04 73.58 201.04 71.3 199.2 C68.68 199 66.15 198.92 63.52 198.94 C62.37 198.93 62.37 198.93 61.19 198.93 C59.56 198.93 57.94 198.93 56.31 198.94 C53.81 198.95 51.32 198.94 48.82 198.93 C47.24 198.93 45.67 198.93 44.09 198.94 C42.96 198.93 42.96 198.93 41.82 198.93 C37.6 198.82 37.6 198.82 34.3 201.2 Z M82.3 201.2 C82.06 203.64 82.06 203.64 82.18 206.33 C82.2 207.24 82.22 208.15 82.23 209.09 C82.26 209.78 82.28 210.48 82.3 211.2 C85.42 212.76 88.73 212.32 92.16 212.3 C92.93 212.3 93.7 212.3 94.5 212.3 C96.98 212.29 99.45 212.28 101.93 212.27 C103.61 212.26 105.28 212.26 106.96 212.25 C111.08 212.24 115.19 212.22 119.3 212.2 C119.33 210.22 119.35 208.24 119.37 206.27 C119.38 205.16 119.39 204.06 119.4 202.93 C119.62 200.29 119.62 200.29 118.3 199.2 C115.81 199.09 113.34 199.04 110.84 199.04 C110.09 199.03 109.34 199.03 108.57 199.03 C106.99 199.02 105.4 199.02 103.81 199.02 C101.38 199.02 98.95 199 96.52 198.98 C94.98 198.98 93.44 198.97 91.9 198.97 C91.17 198.97 90.44 198.96 89.69 198.95 C85.54 198.84 85.54 198.84 82.3 201.2 Z M4.3 201.2 C4.3 204.5 4.3 207.8 4.3 211.2 C4.63 211.2 4.96 211.2 5.3 211.2 C5.3 207.9 5.3 204.6 5.3 201.2 C4.97 201.2 4.64 201.2 4.3 201.2 Z M-152.7 208.2 C-152.57 210.33 -152.57 210.33 -151.95 212.64 C-151.76 213.42 -151.58 214.21 -151.4 215.01 C-150.72 217.46 -150.72 217.46 -148.7 220.2 C-148.45 219.42 -148.2 218.64 -147.95 217.83 C-146.52 214.84 -145.72 214.34 -142.7 213.2 C-142.04 212.87 -141.38 212.54 -140.7 212.2 C-140.7 212.86 -140.7 213.52 -140.7 214.2 C-140.04 214.53 -139.38 214.86 -138.7 215.2 C-138.67 217.18 -138.65 219.16 -138.63 221.14 C-138.62 222.24 -138.61 223.34 -138.6 224.48 C-138.7 227.2 -138.7 227.2 -139.7 228.2 C-141.69 228.24 -143.7 228.25 -145.7 228.2 C-147.06 231.19 -147.06 231.19 -145.51 233.89 C-144.91 234.65 -144.31 235.42 -143.7 236.2 C-142.38 236.2 -141.06 236.2 -139.7 236.2 C-138.61 239.45 -138.56 242.04 -138.45 245.45 C-138.02 251.64 -136.9 254.69 -132.7 259.2 C-130.09 260.51 -128.17 260.32 -125.25 260.3 C-124.17 260.3 -123.1 260.29 -121.99 260.29 C-120.3 260.28 -120.3 260.28 -118.57 260.27 C-117.43 260.26 -116.3 260.26 -115.13 260.25 C-112.32 260.24 -109.51 260.22 -106.7 260.2 C-106.67 252.67 -106.65 245.14 -106.64 237.61 C-106.64 235.05 -106.63 232.49 -106.62 229.92 C-106.61 226.25 -106.6 222.57 -106.6 218.89 C-106.59 217.74 -106.59 216.59 -106.58 215.4 C-106.58 214.34 -106.58 213.28 -106.58 212.18 C-106.58 211.24 -106.58 210.3 -106.58 209.34 C-106.46 207.22 -106.46 207.22 -107.7 206.2 C-109.04 206.1 -110.38 206.06 -111.72 206.06 C-112.58 206.05 -113.43 206.05 -114.31 206.04 C-115.71 206.04 -115.71 206.04 -117.13 206.04 C-118.55 206.03 -118.55 206.03 -120 206.03 C-122.01 206.02 -124.02 206.02 -126.03 206.02 C-129.12 206.02 -132.2 206 -135.28 205.98 C-137.23 205.98 -139.18 205.97 -141.13 205.97 C-142.06 205.97 -142.98 205.96 -143.94 205.95 C-144.8 205.95 -145.65 205.96 -146.54 205.96 C-147.29 205.96 -148.05 205.96 -148.83 205.96 C-150.94 206.04 -150.94 206.04 -152.7 208.2 Z M130.3 208.2 C130.01 210.46 130.01 210.46 130.06 213.1 C130.06 214.11 130.06 215.13 130.05 216.18 C130.06 217.28 130.07 218.38 130.07 219.52 C130.07 220.65 130.08 221.77 130.08 222.93 C130.08 225.32 130.09 227.7 130.1 230.09 C130.12 233.75 130.12 237.42 130.12 241.08 C130.12 243.4 130.13 245.71 130.14 248.02 C130.14 249.12 130.14 250.23 130.14 251.37 C130.15 252.38 130.15 253.39 130.16 254.44 C130.16 255.34 130.17 256.24 130.17 257.16 C130.08 259.2 130.08 259.2 131.3 260.2 C135.38 260.62 139.46 260.67 143.55 260.77 C144.7 260.83 145.85 260.89 147.03 260.96 C153.1 261.26 153.1 261.26 158.18 258.49 C161.58 253.16 162.4 248.57 162.14 242.36 C162.3 240.2 162.3 240.2 164.3 237.2 C165.15 236.75 166 236.3 166.87 235.83 C169.55 234.41 169.55 234.41 170.12 231.52 C170.21 230.37 170.21 230.37 170.3 229.2 C169.36 228.96 168.41 228.71 167.43 228.45 C164.3 227.2 164.3 227.2 163.09 225.42 C162.18 222.84 162.25 221.21 162.62 218.52 C162.72 217.73 162.82 216.94 162.92 216.13 C163.3 214.2 163.3 214.2 164.3 213.2 C166.62 212.83 166.62 212.83 169.3 213.2 C171.49 215.7 171.49 215.7 173.3 218.2 C173.96 218.2 174.62 218.2 175.3 218.2 C175.28 217.32 175.26 216.43 175.24 215.52 C175.3 212.58 175.73 210.06 176.3 207.2 C174.78 205.68 173.4 206.07 171.28 206.06 C170.42 206.05 169.57 206.05 168.69 206.04 C167.29 206.04 167.29 206.04 165.87 206.04 C164.45 206.03 164.45 206.03 163 206.03 C160.99 206.02 158.98 206.02 156.97 206.02 C153.88 206.02 150.8 206 147.72 205.98 C145.77 205.98 143.82 205.97 141.87 205.97 C140.94 205.97 140.02 205.96 139.06 205.95 C138.2 205.95 137.35 205.96 136.46 205.96 C135.71 205.96 134.95 205.96 134.17 205.96 C132.06 206.04 132.06 206.04 130.3 208.2 Z M-94.7 223.2 C-95.82 225.45 -95.85 226.72 -95.9 229.21 C-95.92 230.04 -95.94 230.87 -95.96 231.73 C-95.98 232.63 -95.99 233.54 -96.01 234.48 C-96.03 235.42 -96.05 236.36 -96.07 237.34 C-96.14 240.42 -96.2 243.5 -96.26 246.58 C-96.3 248.68 -96.34 250.79 -96.38 252.89 C-96.61 264.5 -96.79 276.1 -96.82 287.7 C-96.82 288.81 -96.83 289.91 -96.83 291.05 C-96.86 298.19 -96.86 298.19 -95.7 305.2 C-93.12 307.71 -93.12 307.71 -89.7 308.2 C-89.37 309.19 -89.04 310.18 -88.7 311.2 C-85.34 313.32 -82.45 314.95 -78.7 316.2 C-78.7 315.54 -78.7 314.88 -78.7 314.2 C-78.12 314.09 -77.55 313.99 -76.96 313.88 C-74.38 313.11 -72.65 311.99 -70.45 310.45 C-65.42 307.01 -60.3 303.76 -55.07 300.64 C-52.22 298.91 -49.46 297.07 -46.7 295.2 C-45.18 294.18 -43.65 293.16 -42.13 292.14 C-41.41 291.65 -40.69 291.17 -39.94 290.67 C-37.56 289.12 -35.13 287.66 -32.7 286.2 C-30.94 285.08 -29.19 283.96 -27.45 282.83 C-22.63 279.75 -17.71 276.93 -12.7 274.2 C-9.01 272.34 -9.01 272.34 -6.7 269.2 C-5.04 268.27 -3.35 267.4 -1.63 266.58 C-0.71 266.13 0.21 265.69 1.15 265.23 C1.86 264.89 2.57 264.55 3.3 264.2 C3.45 268.4 3.56 272.6 3.63 276.8 C3.66 278.23 3.71 279.66 3.76 281.08 C3.83 283.14 3.86 285.19 3.89 287.25 C3.92 288.49 3.95 289.72 3.99 291 C3.3 294.2 3.3 294.2 0.42 296.52 C-0.61 297.07 -1.63 297.63 -2.7 298.2 C-5.43 300.32 -8.07 302.52 -10.7 304.77 C-13.7 307.2 -13.7 307.2 -16.26 308.7 C-18.86 310.17 -18.86 310.17 -21.2 312.7 C-23.58 315.09 -25.8 316.52 -28.7 318.2 C-29.19 318.7 -29.69 319.19 -30.2 319.7 C-31.7 321.2 -31.7 321.2 -34.26 322.64 C-36.82 323.98 -36.82 323.98 -37.7 326.33 C-38.03 326.95 -38.36 327.57 -38.7 328.2 C-40.36 328.54 -42.03 328.87 -43.7 329.2 C-44.87 331.19 -44.87 331.19 -45.7 333.2 C-43.57 334.04 -41.45 334.87 -39.32 335.7 C-38.14 336.17 -36.95 336.63 -35.73 337.11 C-32.92 338.32 -32.92 338.32 -30.7 338.2 C-27.14 338.62 -23.82 339.17 -20.39 340.17 C-8.71 343.43 3.22 343.47 15.24 343.33 C16.72 343.32 18.19 343.31 19.66 343.3 C23.21 343.28 26.76 343.24 30.3 343.2 C30.3 342.87 30.3 342.54 30.3 342.2 C31.59 342.07 32.88 341.94 34.21 341.8 C35.89 341.62 37.56 341.44 39.24 341.27 C40.09 341.18 40.94 341.09 41.82 341 C42.63 340.91 43.44 340.83 44.27 340.74 C45.02 340.66 45.77 340.58 46.54 340.5 C48.33 340.38 48.33 340.38 49.3 339.2 C50.36 339.08 51.41 338.96 52.49 338.83 C56.26 338.4 56.26 338.4 59.18 336.77 C63.11 334.8 67.01 334.01 71.3 333.2 C71.53 331.14 71.53 331.14 70.05 329.83 C69.48 329.29 68.9 328.76 68.3 328.2 C67.62 327.48 66.94 326.76 66.24 326.02 C64.5 323.98 64.5 323.98 62.3 324.2 C62.3 323.54 62.3 322.88 62.3 322.2 C59.67 319.8 59.67 319.8 56.3 319.2 C56.3 318.54 56.3 317.88 56.3 317.2 C55.64 317.2 54.98 317.2 54.3 317.2 C54.3 316.54 54.3 315.88 54.3 315.2 C53.5 314.94 52.7 314.67 51.87 314.39 C51.02 314 50.18 313.61 49.3 313.2 C48.97 312.21 48.64 311.22 48.3 310.2 C45.8 308.98 45.8 308.98 43.3 308.2 C43.3 307.54 43.3 306.88 43.3 306.2 C42.5 305.94 41.7 305.67 40.87 305.39 C40.02 305 39.18 304.61 38.3 304.2 C37.97 303.21 37.64 302.22 37.3 301.2 C35.69 299.81 34.01 298.48 32.3 297.2 C27.42 293.54 27.42 293.54 26.3 290.2 C26.15 288.07 26.06 285.93 25.99 283.79 C25.95 282.53 25.9 281.28 25.86 279.99 C25.82 278.68 25.78 277.37 25.74 276.02 C25.7 274.68 25.66 273.35 25.61 272.01 C25.51 268.74 25.4 265.47 25.3 262.2 C25.96 262.2 26.62 262.2 27.3 262.2 C27.63 263.19 27.96 264.18 28.3 265.2 C31.26 266.87 34.09 268.13 37.3 269.2 C37.63 270.19 37.96 271.18 38.3 272.2 C40.59 273.77 40.59 273.77 43.3 275.2 C44.58 275.98 44.58 275.98 45.88 276.77 C47.14 277.54 47.14 277.54 48.43 278.33 C49.7 279.11 49.7 279.11 51 279.9 C53.34 281.32 53.34 281.32 56.3 282.2 C56.63 283.19 56.96 284.18 57.3 285.2 C59.29 286.55 59.29 286.55 61.68 287.7 C66.02 289.91 66.02 289.91 67.91 291.86 C69.34 293.55 69.34 293.55 72.3 293.2 C72.63 294.19 72.96 295.18 73.3 296.2 C75.29 297.63 75.29 297.63 77.68 298.83 C78.87 299.47 78.87 299.47 80.08 300.12 C82.39 301.3 82.39 301.3 85.3 302.2 C85.63 303.19 85.96 304.18 86.3 305.2 C87.95 305.53 89.6 305.86 91.3 306.2 C91.63 307.19 91.96 308.18 92.3 309.2 C94.32 309.94 94.32 309.94 96.3 310.2 C96.3 310.86 96.3 311.52 96.3 312.2 C98.7 313.31 98.7 313.31 101.3 314.2 C101.96 313.87 102.62 313.54 103.3 313.2 C103.3 313.86 103.3 314.52 103.3 315.2 C103.88 314.91 104.46 314.63 105.05 314.33 C107.14 313.29 109.22 312.24 111.3 311.2 C111.3 310.54 111.3 309.88 111.3 309.2 C111.88 308.94 112.46 308.67 113.05 308.39 C114.17 307.8 114.17 307.8 115.3 307.2 C116 306.84 116.7 306.48 117.42 306.11 C119.77 303.73 119.78 302.03 119.81 298.76 C119.79 297.66 119.79 297.66 119.77 296.53 C119.78 295.76 119.78 294.98 119.78 294.17 C119.78 291.6 119.76 289.02 119.73 286.45 C119.73 284.66 119.72 282.87 119.72 281.08 C119.71 277.34 119.69 273.6 119.66 269.85 C119.62 265.04 119.6 260.23 119.59 255.42 C119.58 250.85 119.56 246.27 119.54 241.7 C119.54 240.82 119.54 239.94 119.53 239.03 C119.52 236.56 119.5 234.09 119.48 231.61 C119.48 230.87 119.48 230.13 119.47 229.37 C119.73 226 119.73 226 118.3 223.2 C115.56 223.11 112.84 223.07 110.1 223.08 C108.79 223.08 108.79 223.08 107.46 223.08 C104.52 223.08 101.58 223.08 98.64 223.09 C96.54 223.09 94.44 223.09 92.34 223.09 C86.63 223.09 80.91 223.09 75.19 223.1 C69.23 223.11 63.26 223.11 57.29 223.11 C45.98 223.11 34.67 223.12 23.37 223.13 C10.5 223.14 -2.37 223.15 -15.25 223.15 C-41.73 223.16 -68.21 223.18 -94.7 223.2 Z M-147.7 225.2 C-146.7 227.2 -146.7 227.2 -146.7 227.2 Z M-124.7 271.2 C-123.89 275.07 -122.38 277.28 -119.7 280.2 C-119.04 280.2 -118.38 280.2 -117.7 280.2 C-117.7 280.86 -117.7 281.52 -117.7 282.2 C-117.04 282.2 -116.38 282.2 -115.7 282.2 C-114.7 284.2 -113.7 286.2 -112.7 288.2 C-112.04 288.2 -111.38 288.2 -110.7 288.2 C-110.7 288.86 -110.7 289.52 -110.7 290.2 C-109.24 291.83 -109.24 291.83 -107.7 293.2 C-107.04 292.87 -106.38 292.54 -105.7 292.2 C-105.83 288.89 -105.98 285.58 -106.13 282.27 C-106.17 281.32 -106.21 280.37 -106.25 279.4 C-106.29 278.5 -106.34 277.6 -106.38 276.68 C-106.42 275.84 -106.45 275.01 -106.49 274.15 C-106.49 272.2 -106.49 272.2 -107.7 271.2 C-110.56 271.13 -113.4 271.11 -116.26 271.14 C-117.06 271.15 -117.87 271.15 -118.7 271.15 C-120.7 271.17 -122.7 271.18 -124.7 271.2 Z M130.3 273.2 C130 275.11 130 275.11 130.04 277.27 C130.04 278.06 130.03 278.86 130.03 279.68 C130.04 280.51 130.05 281.35 130.05 282.2 C130.05 283.04 130.04 283.87 130.03 284.73 C130.03 285.52 130.04 286.32 130.04 287.14 C130.04 287.87 130.04 288.6 130.05 289.36 C130.15 291.45 130.15 291.45 132.3 293.2 C132.82 292.36 133.34 291.51 133.87 290.64 C135.61 288.01 137.54 285.89 139.8 283.7 C142.86 280.75 145.05 277.79 147.3 274.2 C147.96 273.54 148.62 272.88 149.3 272.2 C145.8 271.03 142.94 271.03 139.24 271.02 C137.99 271 136.74 270.99 135.46 270.97 C132.21 270.86 132.21 270.86 130.3 273.2 Z M152.3 280.2 C152.63 280.86 152.96 281.52 153.3 282.2 C153.63 281.54 153.96 280.88 154.3 280.2 C153.64 280.2 152.98 280.2 152.3 280.2 Z M-12.51 285.52 C-15.83 287.91 -19.16 290.14 -22.7 292.2 C-29.5 296.22 -29.5 296.22 -36.13 300.52 C-38.7 302.2 -38.7 302.2 -41.7 303.2 C-42.12 303.63 -42.54 304.05 -42.97 304.49 C-45.46 306.96 -48.38 308.71 -51.32 310.58 C-51.94 310.97 -52.56 311.37 -53.2 311.78 C-57.93 314.78 -62.74 317.59 -67.7 320.2 C-67.7 321.52 -67.7 322.84 -67.7 324.2 C-66.89 324.51 -66.09 324.82 -65.26 325.14 C-62.7 326.2 -62.7 326.2 -61.7 327.2 C-59.28 327.54 -59.28 327.54 -56.7 327.2 C-55.13 325.89 -55.13 325.89 -53.7 324.2 C-52.99 323.79 -52.29 323.38 -51.57 322.95 C-44.71 318.78 -38.71 313.44 -32.84 308 C-30.58 306.1 -28.24 304.69 -25.7 303.2 C-23.66 301.56 -21.67 299.91 -19.7 298.2 C-16.92 295.81 -14.23 293.52 -11.07 291.64 C-8.47 290.06 -6.58 288.6 -4.7 286.2 C-4.83 283.98 -4.83 283.98 -5.7 282.2 C-8.67 282.2 -10.12 283.79 -12.51 285.52 Z M35.3 282.2 C34.53 284.04 34.53 284.04 34.3 286.2 C35.53 288.02 35.53 288.02 37.3 289.2 C37.96 289.2 38.62 289.2 39.3 289.2 C39.3 290.19 39.3 291.18 39.3 292.2 C40.62 292.2 41.94 292.2 43.3 292.2 C43.3 292.86 43.3 293.52 43.3 294.2 C44.83 295.71 44.83 295.71 46.74 297.2 C50.2 300 50.2 300 51.3 302.2 C52.92 303.25 52.92 303.25 54.8 304.2 C58.19 305.98 58.19 305.98 59.3 308.2 C59.96 308.2 60.62 308.2 61.3 308.2 C61.3 308.86 61.3 309.52 61.3 310.2 C63.07 312.46 64.64 313.37 67.24 314.64 C70.28 316.19 71.96 317.78 74.3 320.2 C74.94 320.51 75.58 320.82 76.24 321.14 C79.14 322.64 81.08 324.85 83.3 327.2 C86.27 325.88 89.24 324.56 92.3 323.2 C92.64 320.24 92.64 320.24 90.95 318.7 C90.34 318.21 89.74 317.71 89.12 317.2 C88.53 316.71 87.93 316.21 87.32 315.7 C85.07 314.03 82.73 312.63 80.3 311.2 C77.54 309.42 74.78 307.62 72.02 305.82 C69.5 304.32 67.06 303.21 64.3 302.2 C64.3 301.54 64.3 300.88 64.3 300.2 C62.17 298.62 62.17 298.62 59.43 297.02 C55.54 294.61 51.73 292.15 47.99 289.52 C47.18 288.94 46.37 288.37 45.54 287.78 C44.43 287 44.43 287 43.3 286.2 C39.64 283.3 39.64 283.3 35.3 282.2 Z M-97.7 299.2 C-96.7 303.2 -96.7 303.2 -96.7 303.2 Z M-11.7 300.2 C-10.21 301.19 -10.21 301.19 -8.7 302.2 C-8.7 301.54 -8.7 300.88 -8.7 300.2 C-9.69 300.2 -10.68 300.2 -11.7 300.2 Z M-27.7 313.2 C-27.04 313.86 -26.38 314.52 -25.7 315.2 C-25.7 314.54 -25.7 313.88 -25.7 313.2 C-26.36 313.2 -27.02 313.2 -27.7 313.2 Z M-32.7 317.2 C-32.37 317.86 -32.04 318.52 -31.7 319.2 C-31.37 318.54 -31.04 317.88 -30.7 317.2 C-31.36 317.2 -32.02 317.2 -32.7 317.2 Z M115.3 317.2 C115.63 317.86 115.96 318.52 116.3 319.2 C116.63 318.54 116.96 317.88 117.3 317.2 C116.64 317.2 115.98 317.2 115.3 317.2 Z " fill="#010201" transform="translate(166.6953125,-0.203125)"/>
<path d="M0 0 C0.66 -0 1.32 -0 2.01 -0 C3.41 -0 4.81 -0 6.21 0 C8.37 0.01 10.52 0 12.67 -0 C14.03 -0 15.39 -0 16.75 0 C18.62 0 18.62 0 20.52 0 C23.38 0.13 23.38 0.13 24.38 1.13 C26.08 1.41 27.79 1.68 29.49 1.93 C38.52 3.31 45.73 5.92 53.38 11.13 C53.87 12.12 53.87 12.12 54.38 13.13 C55.51 13.29 55.51 13.29 56.68 13.45 C60.33 14.38 61.34 16.08 63.56 19.07 C66.3 22.74 66.3 22.74 69.38 26.13 C69.38 27.12 69.38 28.11 69.38 29.13 C70.37 29.46 71.36 29.79 72.38 30.13 C73.47 32.21 73.47 32.21 74.44 34.82 C74.78 35.73 75.12 36.64 75.46 37.58 C75.92 38.84 75.92 38.84 76.38 40.13 C76.93 41.62 76.93 41.62 77.5 43.13 C79.3 49.31 80.87 55.66 80.38 62.13 C77.85 64.66 70.9 63.32 67.5 63.32 C65.83 63.34 65.83 63.34 64.12 63.36 C63.05 63.36 61.98 63.36 60.88 63.36 C59.9 63.37 58.92 63.37 57.9 63.38 C55.38 63.13 55.38 63.13 52.38 61.13 C51.79 58.59 51.79 58.59 51.44 55.51 C50.64 49.92 49.29 45.96 46.38 41.13 C45.71 40.8 45.06 40.47 44.38 40.13 C44.38 39.47 44.38 38.81 44.38 38.13 C43.71 37.8 43.06 37.47 42.38 37.13 C42.05 36.14 41.71 35.15 41.38 34.13 C40.71 34.13 40.06 34.13 39.38 34.13 C39.38 33.47 39.38 32.81 39.38 32.13 C37.89 32.63 37.89 32.63 36.38 33.13 C36.38 32.47 36.38 31.81 36.38 31.13 C35.63 30.84 34.89 30.56 34.12 30.26 C31.38 29.13 31.38 29.13 29.56 28.13 C22.07 24.71 14.46 24.8 6.38 24.82 C5.24 24.8 4.1 24.79 2.93 24.77 C-3.7 24.77 -8.61 25.33 -14.62 28.13 C-15.71 28.63 -16.8 29.12 -17.93 29.63 C-18.92 30.13 -19.91 30.62 -20.94 31.13 C-21.94 31.63 -22.95 32.12 -23.99 32.63 C-30.31 36.23 -32.51 42.01 -34.88 48.63 C-36.53 56.35 -35.87 60.97 -32.12 67.86 C-28.97 72.65 -25.06 75.32 -19.62 77.13 C-18.44 77.59 -17.26 78.05 -16.04 78.53 C-11.54 80.22 -6.97 81.49 -2.31 82.7 C-1.48 82.91 -0.64 83.13 0.22 83.36 C5.42 84.69 10.6 85.8 15.9 86.67 C19.58 87.36 23.14 88.39 26.74 89.41 C29.21 90.09 31.68 90.66 34.19 91.2 C37.68 91.95 41 92.91 44.38 94.13 C45.04 94.37 45.7 94.61 46.38 94.86 C49.82 96.12 53.12 97.45 56.38 99.13 C57.14 99.42 57.9 99.71 58.69 100.01 C62.11 101.44 65.18 103.25 68.38 105.13 C68.38 105.79 68.38 106.45 68.38 107.13 C69.04 107.13 69.69 107.13 70.38 107.13 C71.75 108.38 71.75 108.38 73.38 110.13 C73.99 110.73 74.61 111.33 75.25 111.95 C75.95 112.67 76.65 113.39 77.38 114.13 C78.58 115.37 78.58 115.37 79.81 116.63 C87.05 125.61 88.13 135.67 87.88 146.82 C87.88 148.07 87.88 149.33 87.88 150.62 C87.81 157.76 87.07 163.51 84.38 170.13 C83.71 170.13 83.06 170.13 82.38 170.13 C82.27 170.69 82.17 171.25 82.06 171.82 C79.3 181.12 69.57 189.82 61.38 194.65 C50.85 200.33 40.24 202.98 28.38 204.13 C27.71 204.46 27.06 204.79 26.38 205.13 C24.29 205.23 22.21 205.26 20.12 205.27 C18.88 205.27 17.63 205.27 16.34 205.27 C15.03 205.27 13.72 205.26 12.38 205.26 C11.07 205.26 9.76 205.27 8.41 205.27 C6.53 205.27 6.53 205.27 4.62 205.27 C3.48 205.26 2.33 205.26 1.14 205.26 C-1.62 205.13 -1.62 205.13 -3.62 204.13 C-5.18 203.95 -6.75 203.81 -8.31 203.7 C-12.64 203.29 -16.48 202.47 -20.62 201.13 C-21.34 200.96 -22.05 200.79 -22.79 200.62 C-33.4 197.93 -43.89 191.87 -51.62 184.13 C-51.62 183.47 -51.62 182.81 -51.62 182.13 C-52.22 181.93 -52.82 181.72 -53.44 181.51 C-56.44 179.62 -57.14 177.3 -58.62 174.13 C-59.12 173.66 -59.62 173.18 -60.12 172.7 C-62.47 170.25 -63.36 167.25 -64.62 164.13 C-65.16 163.14 -65.7 162.15 -66.25 161.13 C-67.79 157.78 -68.2 154.78 -68.62 151.13 C-68.95 150.8 -69.29 150.47 -69.62 150.13 C-69.7 147.6 -69.72 145.1 -69.69 142.57 C-69.68 141.86 -69.68 141.15 -69.67 140.42 C-69.66 138.65 -69.64 136.89 -69.62 135.13 C-65.67 135.1 -61.71 135.09 -57.75 135.07 C-56.62 135.06 -55.49 135.05 -54.33 135.04 C-53.26 135.04 -52.18 135.04 -51.07 135.04 C-50.08 135.03 -49.08 135.02 -48.06 135.02 C-45.62 135.13 -45.62 135.13 -43.62 136.13 C-43.25 138.02 -43.25 138.02 -43.06 140.38 C-42.58 146.22 -41.64 150.5 -38.69 155.63 C-36.72 159.07 -35.02 162.42 -33.62 166.13 C-32.96 166.13 -32.31 166.13 -31.62 166.13 C-31.3 166.79 -30.96 167.45 -30.62 168.13 C-29.14 168.88 -29.14 168.88 -27.62 169.63 C-24.62 171.13 -24.62 171.13 -23.62 173.13 C-21.51 174.04 -21.51 174.04 -19.06 174.76 C-18.24 175.02 -17.41 175.28 -16.56 175.55 C-15.92 175.74 -15.28 175.93 -14.62 176.13 C-14.62 176.79 -14.62 177.45 -14.62 178.13 C-13.39 178.28 -12.15 178.42 -10.88 178.57 C-8.82 178.81 -6.89 179.06 -4.9 179.64 C0.63 180.84 6.48 180.47 12.12 180.51 C13.17 180.51 13.17 180.51 14.24 180.52 C31.27 180.78 31.27 180.78 46.11 173.55 C46.74 172.85 46.74 172.85 47.38 172.13 C48.18 171.7 48.98 171.27 49.81 170.82 C54.01 168.06 56.43 163.7 58.38 159.13 C58.82 155.33 58.75 151.52 58.75 147.7 C58.77 146.66 58.8 145.62 58.82 144.55 C58.88 138.52 58.88 138.52 56.54 133.09 C55.82 132.45 55.11 131.8 54.38 131.13 C53.88 130.61 53.38 130.08 52.88 129.54 C45.08 122.54 35.82 118.85 25.68 116.68 C23.38 116.13 23.38 116.13 22.38 115.13 C19.87 114.76 17.39 114.43 14.88 114.13 C7.51 113.27 7.51 113.27 6.38 112.13 C4.76 111.84 3.14 111.55 1.51 111.28 C-7.84 109.76 -16.57 107.06 -25.48 103.88 C-26.96 103.36 -28.46 102.87 -29.96 102.4 C-34.55 100.96 -38.4 99.33 -42.44 96.63 C-43.78 95.75 -43.78 95.75 -45.14 94.85 C-46.37 94 -46.37 94 -47.62 93.13 C-48.39 92.61 -49.16 92.08 -49.95 91.54 C-50.78 90.84 -50.78 90.84 -51.62 90.13 C-51.62 89.47 -51.62 88.81 -51.62 88.13 C-52.29 88.13 -52.94 88.13 -53.62 88.13 C-53.62 87.47 -53.62 86.81 -53.62 86.13 C-54.29 86.13 -54.94 86.13 -55.62 86.13 C-55.88 85.61 -56.13 85.09 -56.39 84.56 C-58.61 80.04 -58.61 80.04 -61.25 75.76 C-66.24 66.23 -65.87 52.99 -63.51 42.73 C-59.37 30.58 -52.21 20.27 -41.62 13.13 C-40.61 12.41 -39.6 11.69 -38.56 10.95 C-33.74 7.97 -29.4 5.61 -23.62 6.13 C-23.62 5.47 -23.62 4.81 -23.62 4.13 C-18.97 2.3 -14.64 1.74 -9.7 1.38 C-6.25 0.97 -3.95 0 0 0 Z " fill="#000100" transform="translate(1121.625,78.8671875)"/>
<path d="M0 0 C0.66 -0 1.32 -0 2.01 -0 C3.41 -0 4.81 -0 6.21 0 C8.37 0.01 10.52 0 12.67 -0 C14.03 -0 15.39 -0 16.75 0 C18.62 0 18.62 0 20.52 0 C23.38 0.13 23.38 0.13 24.38 1.13 C25.65 1.24 26.93 1.34 28.25 1.45 C37.14 2.35 45.35 6.41 53.38 10.13 C53.38 10.79 53.38 11.45 53.38 12.13 C55.68 12.79 58 13.45 60.38 14.13 C60.38 14.79 60.38 15.45 60.38 16.13 C61.03 16.13 61.69 16.13 62.38 16.13 C62.71 16.79 63.03 17.45 63.38 18.13 C64 18.26 64.62 18.39 65.25 18.53 C68.03 19.32 68.69 20.47 70.31 22.82 C72.15 25.41 73.98 27.92 76.06 30.32 C78.14 32.85 79.77 35.29 81.38 38.13 C81.89 38.88 82.41 39.62 82.94 40.38 C84.57 43.51 85.16 46.35 85.84 49.79 C86.37 52.12 87.11 54.22 88 56.45 C89.38 60.13 89.38 60.13 89.38 64.13 C84.94 64.25 80.5 64.32 76.06 64.38 C74.8 64.42 73.54 64.45 72.24 64.48 C70.42 64.5 70.42 64.5 68.57 64.52 C66.9 64.55 66.9 64.55 65.19 64.59 C62.38 64.13 62.38 64.13 60.52 62.33 C58.97 59.36 58.8 56.44 58.38 53.13 C57.72 52.47 57.06 51.81 56.38 51.13 C56.38 50.14 56.38 49.15 56.38 48.13 C55.72 48.13 55.06 48.13 54.38 48.13 C53.94 46.93 53.94 46.93 53.5 45.7 C52.64 43 52.64 43 50.38 42.13 C50.38 41.47 50.38 40.81 50.38 40.13 C49.06 39.47 47.74 38.81 46.38 38.13 C46.38 37.47 46.38 36.81 46.38 36.13 C45.83 35.86 45.29 35.59 44.73 35.32 C43.04 34.47 41.36 33.6 39.68 32.73 C38.69 32.22 37.7 31.72 36.69 31.2 C35.71 30.69 34.74 30.19 33.74 29.67 C24.71 25.55 17.21 24.66 7.25 24.76 C6.01 24.75 4.78 24.73 3.5 24.72 C-3.03 24.74 -7.86 25.02 -13.62 28.13 C-15.23 28.72 -16.83 29.3 -18.44 29.88 C-28.43 33.88 -38.71 41.31 -43.62 51.13 C-44.32 52.79 -45 54.45 -45.62 56.13 C-46.28 56.13 -46.94 56.13 -47.62 56.13 C-47.71 56.77 -47.79 57.41 -47.88 58.07 C-48.56 60.87 -49.46 63.05 -50.69 65.63 C-52.24 68.99 -52.98 71.38 -52.62 75.13 C-52.95 75.46 -53.29 75.79 -53.62 76.13 C-53.83 77.46 -53.99 78.8 -54.12 80.13 C-54.51 84.02 -54.51 84.02 -55.62 85.13 C-55.73 87.58 -55.76 90.01 -55.76 92.46 C-55.76 93.2 -55.76 93.94 -55.76 94.7 C-55.76 96.27 -55.76 97.84 -55.76 99.41 C-55.75 101.79 -55.76 104.18 -55.76 106.57 C-55.76 108.09 -55.76 109.62 -55.76 111.14 C-55.76 111.85 -55.76 112.56 -55.76 113.29 C-55.74 118.48 -55.33 123.18 -53.56 128.07 C-52.5 131.55 -52.48 134.51 -52.62 138.13 C-51.97 138.46 -51.31 138.79 -50.62 139.13 C-50.02 140.73 -49.42 142.33 -48.87 143.95 C-46.02 152.26 -42.05 157.72 -35.82 163.84 C-33.62 166.13 -33.62 166.13 -33.62 168.13 C-32.97 168.13 -32.31 168.13 -31.62 168.13 C-31.3 168.79 -30.97 169.45 -30.62 170.13 C-29.97 170.3 -29.31 170.46 -28.62 170.63 C-27.97 170.8 -27.31 170.96 -26.62 171.13 C-26.3 171.79 -25.97 172.45 -25.62 173.13 C-23.62 174.04 -21.57 174.86 -19.5 175.63 C-18.38 176.06 -17.27 176.48 -16.12 176.91 C-14.96 177.32 -13.81 177.72 -12.62 178.13 C-11.1 178.7 -11.1 178.7 -9.54 179.27 C-3.9 180.83 2.07 180.42 7.88 180.38 C9.67 180.39 9.67 180.39 11.5 180.41 C20.01 180.39 26.12 179.53 33.69 175.51 C38.17 173.13 38.17 173.13 40.38 173.13 C40.38 172.47 40.38 171.81 40.38 171.13 C41.03 171.13 41.69 171.13 42.38 171.13 C42.38 170.47 42.38 169.81 42.38 169.13 C46.53 164.52 46.53 164.52 49.56 163.13 C52.19 161.68 52.34 159.93 53.38 157.13 C54.21 155.83 55.07 154.54 55.94 153.26 C58.4 149.46 59.01 146.6 59.38 142.13 C59.71 141.8 60.03 141.47 60.38 141.13 C60.75 139.56 61.07 137.97 61.38 136.38 C61.54 135.52 61.71 134.66 61.88 133.77 C62.22 131.98 62.53 130.17 62.81 128.37 C63 127.63 63.18 126.89 63.38 126.13 C67.36 124.14 72.43 124.95 76.81 124.95 C77.88 124.93 78.94 124.92 80.03 124.91 C81.05 124.91 82.07 124.9 83.12 124.9 C84.06 124.9 84.99 124.89 85.95 124.89 C88.38 125.13 88.38 125.13 91.38 127.13 C91.62 130.7 91.62 130.7 91.38 134.13 C91.04 134.46 90.72 134.79 90.38 135.13 C90.22 136.5 90.1 137.88 90 139.26 C89.56 143.68 88.25 147.08 86.38 151.13 C86.07 152.27 85.76 153.4 85.44 154.57 C83.01 162.71 78.43 170.35 73.38 177.13 C72.72 177.13 72.06 177.13 71.38 177.13 C71.38 177.79 71.38 178.45 71.38 179.13 C70.72 179.13 70.06 179.13 69.38 179.13 C69.29 179.71 69.21 180.29 69.12 180.88 C68.15 183.81 66.74 185.19 64.38 187.13 C63.38 187.13 62.39 187.13 61.38 187.13 C61.38 187.79 61.38 188.45 61.38 189.13 C57.99 192.22 54.5 194.19 50.38 196.13 C49.72 196.49 49.07 196.84 48.39 197.21 C44.59 199.24 41.82 200.69 37.38 200.13 C37.38 200.79 37.38 201.45 37.38 202.13 C36.3 202.27 35.23 202.4 34.13 202.54 C32.73 202.71 31.33 202.89 29.94 203.07 C28.88 203.2 28.88 203.2 27.79 203.33 C24.29 203.51 24.29 203.51 21.38 205.13 C19.25 205.23 17.13 205.26 15 205.27 C13.71 205.27 12.41 205.27 11.08 205.27 C10.4 205.27 9.72 205.27 9.02 205.26 C6.95 205.26 4.88 205.26 2.81 205.27 C1.51 205.27 0.22 205.27 -1.12 205.27 C-2.32 205.26 -3.52 205.26 -4.75 205.26 C-7.62 205.13 -7.62 205.13 -9.62 204.13 C-10.96 203.98 -12.29 203.86 -13.62 203.76 C-21.73 202.9 -28.55 200.44 -35.54 196.32 C-37.8 194.97 -37.8 194.97 -41.12 193.7 C-48.39 190.45 -53.81 186.42 -58.62 180.13 C-59.53 179.25 -60.44 178.36 -61.38 177.45 C-63.62 175.13 -63.62 175.13 -64.62 172.13 C-65.37 171.39 -65.37 171.39 -66.12 170.63 C-67.62 169.13 -67.62 169.13 -68.62 166.13 C-69.29 165.8 -69.94 165.47 -70.62 165.13 C-71.39 163.45 -72.14 161.75 -72.83 160.04 C-73.55 158.3 -74.4 156.62 -75.25 154.95 C-76.42 152.56 -77.01 150.68 -77.62 148.13 C-78.1 147.1 -78.57 146.07 -79.06 145.01 C-81.03 140.53 -81.76 135.92 -82.62 131.13 C-82.79 130.49 -82.95 129.85 -83.12 129.2 C-84.97 121.5 -84.89 113.83 -84.83 105.96 C-84.81 103.61 -84.81 101.26 -84.81 98.91 C-84.81 97.41 -84.8 95.91 -84.79 94.41 C-84.79 93.71 -84.79 93.01 -84.79 92.29 C-84.74 87.37 -84.74 87.37 -83.62 85.13 C-83.47 83.43 -83.35 81.72 -83.25 80.01 C-82.83 74.83 -81.6 70.91 -79.62 66.13 C-79.28 64.47 -78.95 62.8 -78.62 61.13 C-77.68 58.11 -76.66 55.12 -75.62 52.13 C-74.96 52.13 -74.31 52.13 -73.62 52.13 C-73.42 51.18 -73.21 50.24 -73 49.26 C-69.16 35.88 -57.39 22.19 -45.62 15.13 C-44.85 14.65 -44.08 14.17 -43.28 13.67 C-30.11 5.54 -30.11 5.54 -23.62 6.13 C-23.62 5.47 -23.62 4.81 -23.62 4.13 C-22.49 3.99 -21.36 3.84 -20.19 3.7 C-16.82 3.52 -16.82 3.52 -15.62 2.13 C-13.57 1.81 -11.51 1.62 -9.44 1.41 C-0.33 0 -0.33 0 0 0 Z " fill="#000100" transform="translate(518.625,78.8671875)"/>
<path d="M0 0 C8.91 0 17.82 0 27 0 C29.82 7.05 32.06 13.46 33.97 20.7 C35.01 24.03 36.42 26.9 38 30 C38.81 32.46 39.48 34.93 40.16 37.44 C40.97 40.11 40.97 40.11 42.47 42.91 C44.03 46.05 45.03 49.07 46 52.44 C47.05 55.96 48.11 59.25 49.56 62.62 C50.82 65.57 51.64 68.28 52.44 71.38 C53.58 75.76 55.11 79.67 57.03 83.76 C58.39 86.9 59.27 90.14 60.21 93.43 C61.32 97.04 62.76 100.49 64.23 103.97 C65 106 65 106 65 108 C66.49 108.5 66.49 108.5 68 109 C68.33 107.35 68.66 105.7 69 104 C69.66 104 70.32 104 71 104 C70.91 102.98 70.91 102.98 70.81 101.94 C71.01 98.89 71.87 96.77 73.14 94.02 C74.48 90.88 75.37 87.62 76.32 84.34 C77.14 81.53 78.08 78.77 79 76 C79.48 74.35 79.96 72.71 80.44 71.06 C81.68 66.89 83.28 63 85 59 C85.52 57.3 86.02 55.59 86.5 53.88 C87.31 51.04 88.02 48.97 89.56 46.44 C91.33 43.44 91.8 40.64 92.47 37.25 C93.24 33.99 94.68 31.07 96 28 C96.52 26.15 97.02 24.3 97.5 22.44 C98.58 18.28 100.08 14.84 102 11 C102.56 9.11 103.09 7.22 103.59 5.31 C103.86 4.32 104.12 3.32 104.4 2.3 C104.7 1.16 104.7 1.16 105 0 C108.94 -0.03 112.87 -0.05 116.81 -0.06 C117.93 -0.07 119.05 -0.08 120.21 -0.09 C121.81 -0.09 121.81 -0.09 123.46 -0.1 C124.94 -0.11 124.94 -0.11 126.46 -0.11 C129 0 129 0 132 1 C131.56 4.43 130.5 7.26 129.06 10.38 C127.31 14.19 126.14 17.95 125 22 C123.73 25.36 122.38 28.68 121 32 C120.34 32 119.68 32 119 32 C118.9 32.99 118.79 33.98 118.69 35 C118.08 39.27 116.6 43.02 115 47 C114.5 48.35 114 49.71 113.5 51.06 C112.54 53.65 111.5 56.17 110.38 58.69 C109.2 61.52 108.46 63.98 108 67 C107.34 67 106.68 67 106 67 C105.77 68.2 105.55 69.39 105.31 70.62 C103.67 78.01 101.47 86.01 97.48 92.46 C95.63 95.64 94.77 98.77 93.81 102.31 C93.3 104.19 93.3 104.19 92.77 106.11 C92.52 107.07 92.26 108.02 92 109 C91.34 109 90.68 109 90 109 C90.06 109.72 90.12 110.44 90.19 111.19 C89.96 114.62 88.77 116.05 87 119 C86.51 120.51 86.05 122.03 85.62 123.56 C84.19 128.64 82.22 133.37 80.14 138.21 C78.82 141.44 77.85 144.62 77 148 C76.34 148 75.68 148 75 148 C75.06 148.72 75.12 149.44 75.19 150.19 C74.96 153.62 73.79 155.08 72 158 C71.56 159.3 71.14 160.62 70.75 161.94 C66.63 174.79 59.93 187.64 48.22 194.92 C45.08 196.45 42.46 196.78 39 197 C38.67 197.33 38.34 197.66 38 198 C35.28 198.13 32.6 198.19 29.88 198.19 C29.13 198.2 28.38 198.21 27.61 198.22 C22.7 198.24 18.6 197.76 14 196 C11.21 191.82 11.67 188.35 11.69 183.44 C11.67 182.56 11.66 181.69 11.64 180.78 C11.64 179.53 11.64 179.53 11.64 178.25 C11.63 177.1 11.63 177.1 11.63 175.92 C11.75 175.29 11.87 174.65 12 174 C15 172 15 172 17.23 172.21 C18.41 172.51 18.41 172.51 19.62 172.81 C20.82 173.1 20.82 173.1 22.04 173.39 C24 174 24 174 25 175 C28.84 175.14 32.32 175.18 36 174 C36 173.34 36 172.68 36 172 C36.78 171.92 37.57 171.84 38.38 171.75 C41.06 171.3 41.06 171.3 41.99 169.39 C43.3 166.28 44.53 163.15 45.75 160 C48.45 153.12 51.56 146.55 55 140 C54.34 140 53.68 140 53 140 C52.88 139.29 52.77 138.59 52.65 137.86 C51.95 134.77 50.88 132.1 49.62 129.19 C48.1 125.63 46.63 122.08 45.31 118.44 C44.13 114.95 44.13 114.95 42 112 C41.37 109.74 41.37 109.74 40.88 107.31 C40.62 106.1 40.62 106.1 40.37 104.86 C40.25 104.25 40.12 103.63 40 103 C39.34 103 38.68 103 38 103 C37.88 102.07 37.75 101.14 37.62 100.19 C37.18 96.86 37.18 96.86 35 94 C34.31 92.01 33.64 90.01 33 88 C32.69 87.24 32.38 86.47 32.06 85.69 C31.15 83.37 30.38 81.06 29.62 78.69 C28.64 75.68 27.53 72.92 26.06 70.12 C24.02 66.2 22.54 62.18 21.07 58.01 C18.86 51.8 16.46 45.64 14 39.52 C12.38 35.45 10.86 31.35 9.32 27.25 C8.04 23.98 8.04 23.98 6.43 20.87 C5.2 18.41 4.3 16.12 3.5 13.5 C2.6 10.64 1.65 8.32 0.25 5.62 C-1 3 -1 3 0 0 Z M58 179 C58 179.99 58 180.98 58 182 C58.66 181.67 59.32 181.34 60 181 C60 180.34 60 179.68 60 179 C59.34 179 58.68 179 58 179 Z " fill="#000100" transform="translate(768,138)"/>
<path d="M0 0 C1.03 0 2.06 0.01 3.12 0.01 C4.24 0.01 5.36 0.02 6.51 0.02 C8.26 0.04 8.26 0.04 10.06 0.06 C11.23 0.06 12.41 0.06 13.62 0.06 C22.35 0.1 22.35 0.1 23.49 1.24 C23.6 3.27 23.63 5.31 23.63 7.34 C23.64 7.98 23.64 8.63 23.64 9.29 C23.65 11.46 23.65 13.64 23.66 15.81 C23.66 17.36 23.66 18.91 23.67 20.47 C23.68 24.7 23.69 28.92 23.69 33.15 C23.7 35.8 23.7 38.44 23.71 41.08 C23.72 49.36 23.73 57.63 23.73 65.9 C23.74 75.44 23.75 84.99 23.78 94.53 C23.81 101.91 23.82 109.28 23.82 116.66 C23.82 121.07 23.82 125.47 23.84 129.88 C23.86 134.03 23.86 138.18 23.85 142.33 C23.85 143.84 23.86 145.36 23.86 146.88 C23.91 154.84 23.62 161.82 20.49 169.24 C20.23 170.25 19.96 171.26 19.68 172.31 C15.74 182.07 6.79 190.55 -2.51 195.24 C-5.46 196.46 -8.42 197.43 -11.51 198.24 C-12.11 198.41 -12.71 198.58 -13.34 198.75 C-31.04 203.26 -51.3 201.76 -67.51 193.24 C-67.51 192.58 -67.51 191.92 -67.51 191.24 C-68.08 191.16 -68.66 191.08 -69.26 190.99 C-72.12 190.04 -73.42 188.39 -75.51 186.24 C-76.5 185.91 -77.49 185.58 -78.51 185.24 C-78.51 184.58 -78.51 183.92 -78.51 183.24 C-79.17 183.24 -79.83 183.24 -80.51 183.24 C-81.17 181.26 -81.83 179.28 -82.51 177.24 C-83.17 177.24 -83.83 177.24 -84.51 177.24 C-84.94 176.07 -85.37 174.89 -85.82 173.68 C-86.84 170.93 -87.93 168.23 -89.13 165.56 C-91.34 160.24 -91.59 155.82 -91.44 150.13 C-91.29 148.23 -91.29 148.23 -92.51 147.24 C-92.58 144.38 -92.6 141.54 -92.57 138.68 C-92.55 135.9 -92.53 133.11 -92.51 130.24 C-83.93 130.24 -75.35 130.24 -66.51 130.24 C-64.26 138.09 -64.26 138.09 -64.01 141.51 C-63.95 142.25 -63.89 142.99 -63.82 143.75 C-63.76 144.51 -63.7 145.27 -63.63 146.06 C-62.96 153.01 -61.73 158.97 -58.51 165.24 C-58.18 165.97 -57.85 166.7 -57.51 167.45 C-56.64 169.46 -56.64 169.46 -54.38 169.99 C-53.76 170.08 -53.14 170.16 -52.51 170.24 C-52.51 170.9 -52.51 171.56 -52.51 172.24 C-45.78 174.95 -39.73 175.79 -32.51 175.81 C-31.57 175.84 -30.64 175.88 -29.68 175.92 C-22.47 175.96 -17.95 173.95 -12.51 169.24 C-5.09 160.46 -5.07 150.29 -5.11 139.3 C-5.1 137.8 -5.09 136.31 -5.08 134.81 C-5.07 131.61 -5.06 128.41 -5.06 125.2 C-5.07 120.14 -5.05 115.08 -5.02 110.01 C-4.98 100.19 -4.97 90.37 -4.95 80.55 C-4.93 68.02 -4.89 55.49 -4.84 42.96 C-4.82 37.92 -4.81 32.89 -4.81 27.85 C-4.81 24.73 -4.8 21.6 -4.78 18.48 C-4.78 17.03 -4.78 15.57 -4.78 14.12 C-4.78 12.15 -4.78 10.17 -4.76 8.19 C-4.76 7.09 -4.76 5.98 -4.76 4.84 C-4.41 1.29 -3.57 0.35 0 0 Z " fill="#000100" transform="translate(998.506103515625,83.757080078125)"/>
<path d="M0 0 C0.94 0 1.88 0.01 2.85 0.01 C3.84 0.02 4.82 0.03 5.84 0.04 C6.83 0.04 7.82 0.04 8.84 0.05 C11.3 0.06 13.76 0.08 16.21 0.1 C17.93 3.53 17.46 7.48 17.53 11.26 C17.55 12.17 17.57 13.08 17.59 14.01 C17.66 16.91 17.71 19.82 17.77 22.72 C17.82 24.69 17.86 26.65 17.9 28.62 C18.01 33.45 18.11 38.27 18.21 43.1 C18.96 43.09 19.7 43.08 20.47 43.07 C23.84 43.02 27.22 43 30.59 42.97 C31.76 42.96 32.94 42.94 34.15 42.92 C35.83 42.91 35.83 42.91 37.55 42.9 C38.58 42.89 39.62 42.88 40.69 42.87 C43.21 43.1 43.21 43.1 45.21 45.1 C45.44 47.16 45.44 47.16 45.41 49.67 C45.4 50.48 45.4 51.28 45.39 52.11 C45.37 53.14 45.35 54.17 45.34 55.22 C45.29 58.48 45.25 61.74 45.21 65.1 C31.85 65.59 31.85 65.59 18.21 66.1 C18.19 77.62 18.17 89.13 18.16 100.65 C18.15 106 18.15 111.35 18.14 116.7 C18.12 121.86 18.12 127.02 18.12 132.18 C18.11 134.15 18.11 136.12 18.11 138.09 C18.1 140.84 18.1 143.6 18.1 146.36 C18.09 147.58 18.09 147.58 18.09 148.83 C18.09 152.71 18.26 156.32 19.21 160.1 C19.93 160.12 20.64 160.14 21.38 160.16 C24.62 160.25 27.85 160.36 31.09 160.47 C32.21 160.5 33.34 160.53 34.5 160.57 C36.12 160.62 36.12 160.62 37.77 160.68 C38.76 160.72 39.76 160.75 40.78 160.78 C43.21 161.1 43.21 161.1 45.21 163.1 C45.44 165.16 45.44 165.16 45.41 167.67 C45.4 168.56 45.39 169.46 45.39 170.38 C45.36 171.79 45.36 171.79 45.34 173.22 C45.33 174.17 45.32 175.11 45.31 176.09 C45.28 178.42 45.25 180.76 45.21 183.1 C40.23 183.2 35.25 183.27 30.27 183.32 C28.58 183.34 26.89 183.36 25.2 183.4 C22.75 183.45 20.31 183.47 17.87 183.49 C16.75 183.52 16.75 183.52 15.61 183.55 C8.73 183.55 2.22 180.91 -2.79 176.1 C-3.91 173.72 -3.91 173.72 -4.79 171.1 C-5.13 170.42 -5.47 169.74 -5.82 169.04 C-7.2 164.83 -7.09 160.85 -7.09 156.46 C-7.1 155.49 -7.11 154.53 -7.12 153.53 C-7.14 150.35 -7.16 147.17 -7.17 143.99 C-7.18 141.78 -7.2 139.57 -7.22 137.36 C-7.27 131.55 -7.3 125.73 -7.33 119.92 C-7.38 110.6 -7.45 101.28 -7.52 91.96 C-7.54 88.7 -7.56 85.44 -7.57 82.18 C-7.59 80.19 -7.6 78.21 -7.62 76.22 C-7.62 75.31 -7.62 74.39 -7.62 73.45 C-7.26 69.45 -7.26 69.45 -8.79 66.1 C-10.35 65.94 -11.91 65.85 -13.48 65.78 C-14.42 65.74 -15.37 65.7 -16.34 65.65 C-17.34 65.61 -18.33 65.58 -19.35 65.54 C-20.85 65.47 -20.85 65.47 -22.37 65.4 C-24.84 65.3 -27.32 65.2 -29.79 65.1 C-30.95 62.77 -30.92 61.38 -30.92 58.78 C-30.92 57.93 -30.92 57.09 -30.93 56.22 C-30.92 55.33 -30.92 54.45 -30.91 53.54 C-30.92 52.65 -30.92 51.76 -30.93 50.84 C-30.92 50 -30.92 49.15 -30.92 48.28 C-30.92 47.5 -30.92 46.73 -30.92 45.92 C-30.79 44.1 -30.79 44.1 -29.79 43.1 C-28.08 43.01 -26.37 42.99 -24.66 43 C-23.73 43 -22.8 43 -21.84 43.01 C-20.05 43.02 -20.05 43.02 -18.23 43.04 C-14.45 43.06 -10.68 43.08 -6.79 43.1 C-6.79 29.24 -6.79 15.38 -6.79 1.1 C-4.34 -0.13 -2.74 -0.02 0 0 Z " fill="#000100" transform="translate(712.7890625,94.90234375)"/>
<path d="M0 0 C3.65 -0.03 7.29 -0.05 10.94 -0.06 C12.5 -0.08 12.5 -0.08 14.09 -0.09 C15.08 -0.09 16.07 -0.09 17.09 -0.1 C18.46 -0.11 18.46 -0.11 19.87 -0.11 C22 0 22 0 23 1 C23.11 2.82 23.15 4.65 23.16 6.47 C23.17 7.66 23.18 8.85 23.19 10.07 C23.2 12.04 23.2 12.04 23.21 14.06 C23.21 15.45 23.22 16.84 23.24 18.22 C23.26 22.01 23.28 25.79 23.3 29.57 C23.33 33.52 23.35 37.47 23.38 41.42 C23.43 48.9 23.47 56.39 23.52 63.87 C23.57 72.39 23.62 80.91 23.68 89.42 C23.79 106.95 23.9 124.47 24 142 C16.08 142 8.16 142 0 142 C-1.31 139.38 -1.13 137.46 -1.13 134.53 C-1.13 133.37 -1.13 132.21 -1.14 131.02 C-1.13 129.74 -1.13 128.46 -1.13 127.14 C-1.13 125.78 -1.13 124.42 -1.13 123.07 C-1.14 119.38 -1.14 115.69 -1.13 112 C-1.13 108.14 -1.13 104.28 -1.14 100.43 C-1.14 93.95 -1.14 87.48 -1.13 81 C-1.12 73.5 -1.13 66.01 -1.13 58.51 C-1.14 52.09 -1.14 45.66 -1.13 39.23 C-1.13 35.39 -1.13 31.55 -1.14 27.71 C-1.14 24.1 -1.14 20.48 -1.13 16.87 C-1.13 14.91 -1.13 12.95 -1.14 10.98 C-1.13 9.82 -1.13 8.66 -1.13 7.47 C-1.13 6.45 -1.13 5.44 -1.13 4.4 C-1 2 -1 2 0 0 Z " fill="#000100" transform="translate(638,138)"/>
<path d="M0 0 C1.11 -0.03 1.11 -0.03 2.25 -0.06 C9.01 -0.11 13.41 1.63 19.06 5.44 C23.39 9.87 24.81 14.1 24.81 20.25 C20.85 20.75 20.85 20.75 16.81 21.25 C16.32 19.77 16.32 19.77 15.81 18.25 C15.15 18.25 14.49 18.25 13.81 18.25 C13.61 17.3 13.4 16.35 13.19 15.38 C12.1 11.96 12.1 11.96 8.69 10.88 C7.74 10.67 6.79 10.46 5.81 10.25 C5.81 9.59 5.81 8.93 5.81 8.25 C-3.45 9.56 -3.45 9.56 -11.19 14.25 C-11.43 16.23 -11.43 16.23 -11.31 18.38 C-11.27 19.65 -11.23 20.93 -11.19 22.25 C-10.38 22.52 -9.58 22.79 -8.75 23.06 C-6.86 23.69 -4.98 24.32 -3.1 24.98 C0.69 26.29 4.36 27.39 8.31 28.12 C14.49 29.42 20.65 32.41 24.81 37.25 C27.92 42.09 27.32 47.71 26.81 53.25 C26.06 55.62 25.2 57.17 23.81 59.25 C23.15 59.25 22.49 59.25 21.81 59.25 C21.81 59.91 21.81 60.57 21.81 61.25 C15.31 65.11 10.37 65.87 2.88 65.75 C1.47 65.77 1.47 65.77 0.03 65.8 C-7.33 65.76 -13.94 64.49 -19.31 59.14 C-22.04 54.57 -24.22 50.51 -25.19 45.25 C-24.86 44.59 -24.53 43.93 -24.19 43.25 C-17.56 43.12 -17.56 43.12 -14.19 44.25 C-13.48 46.24 -12.82 48.24 -12.19 50.25 C-11.25 52.62 -11.25 52.62 -9.19 54.25 C-6.85 54.96 -4.55 55.44 -2.15 55.86 C-0.19 56.25 -0.19 56.25 0.81 57.25 C5.44 57.79 8.77 56.46 12.81 54.25 C15.49 51.53 15.49 51.53 16.81 48.25 C16.05 44.98 14.69 43.06 12.81 40.25 C7.76 37.69 2.12 37.11 -3.4 36.13 C-7.35 35.21 -10.52 33.94 -14.19 32.25 C-15.07 31.88 -15.96 31.51 -16.88 31.12 C-20.44 28.23 -21.88 24.59 -23.19 20.25 C-23.12 17.75 -23.12 17.75 -22.19 15.25 C-21.96 14.51 -21.74 13.78 -21.51 13.02 C-19.52 6.59 -19.52 6.59 -17.19 4.25 C-14.87 3.22 -12.54 2.21 -10.19 1.25 C-6.98 -0.35 -3.52 0.02 0 0 Z " fill="#010201" transform="translate(200.1875,48.75)"/>
<path d="M0 0 C6.58 0.58 6.58 0.58 8 2 C8.11 3.55 8.16 5.11 8.18 6.67 C8.2 8.16 8.2 8.16 8.22 9.68 C8.22 10.77 8.23 11.85 8.24 12.97 C8.25 14.08 8.25 15.2 8.26 16.34 C8.28 18.7 8.29 21.06 8.3 23.43 C8.31 27.02 8.36 30.62 8.4 34.22 C8.41 36.51 8.42 38.8 8.43 41.1 C8.44 42.17 8.46 43.24 8.48 44.34 C8.46 51.01 7.62 55.35 4 61 C1.25 62.5 1.25 62.5 -1 63 C-1 62.34 -1 61.68 -1 61 C-1.99 61 -2.98 61 -4 61 C-4 61.99 -4 62.98 -4 64 C-3.34 64.33 -2.68 64.66 -2 65 C-4.69 65.11 -7.37 65.19 -10.06 65.25 C-10.81 65.28 -11.57 65.32 -12.34 65.35 C-18.06 65.45 -21.26 64.2 -26 61 C-26 60.34 -26 59.68 -26 59 C-26.66 58.67 -27.32 58.34 -28 58 C-28 56.68 -28 55.36 -28 54 C-28.99 53.67 -29.98 53.34 -31 53 C-31 49.67 -31 46.33 -31 43 C-29.35 42.97 -27.71 42.95 -26.06 42.94 C-25.15 42.93 -24.23 42.91 -23.29 42.9 C-21 43 -21 43 -20 44 C-19.76 46.29 -19.62 48.57 -19.48 50.87 C-19.17 53.38 -19.17 53.38 -16 55 C-12.29 56.01 -9.13 56.49 -5.56 54.94 C-1.74 50.2 -2.82 42.47 -2.75 36.64 C-2.72 34.62 -2.69 32.6 -2.65 30.57 C-2.61 27.4 -2.56 24.22 -2.52 21.05 C-2.48 17.97 -2.43 14.9 -2.38 11.83 C-2.37 10.87 -2.36 9.92 -2.35 8.93 C-2.34 8.05 -2.32 7.17 -2.3 6.26 C-2.29 5.49 -2.28 4.71 -2.27 3.91 C-2 2 -2 2 0 0 Z " fill="#000100" transform="translate(160,49)"/>
<path d="M0 0 C3.21 0.75 3.54 1.34 5.31 4 C7.55 7.95 8.88 11.95 10.01 16.33 C10.62 18.65 10.62 18.65 11.76 20.75 C12.94 23.13 12.83 25 12.69 27.62 C15.8 26.97 15.8 26.97 16.79 24.62 C18.78 19.33 20.46 14.15 21.69 8.62 C22.35 8.62 23.01 8.62 23.69 8.62 C23.56 7.48 23.56 7.48 23.44 6.31 C23.69 3.62 23.69 3.62 25.31 1.81 C27.69 0.62 27.69 0.62 33.69 0.62 C33.69 13.5 33.69 26.37 33.69 39.62 C32.04 39.62 30.39 39.62 28.69 39.62 C27.17 38.11 27.47 36.7 27.37 34.59 C27.33 33.78 27.29 32.97 27.24 32.14 C27.2 31.29 27.17 30.44 27.12 29.56 C27.08 28.71 27.04 27.85 26.99 26.97 C26.89 24.86 26.79 22.74 26.69 20.62 C24.55 21.42 24.55 21.42 23.94 23.38 C23.71 24.12 23.49 24.86 23.25 25.62 C23 26.43 22.74 27.23 22.48 28.06 C22.22 28.91 21.96 29.75 21.69 30.62 C21.13 32.31 20.57 34 20 35.69 C19.75 36.44 19.5 37.2 19.24 37.97 C19.06 38.52 18.87 39.06 18.69 39.62 C16.38 39.62 14.07 39.62 11.69 39.62 C9.05 34.7 7.09 30.06 5.69 24.62 C4.7 21.33 3.71 18.03 2.69 14.62 C2.36 22.88 2.03 31.12 1.69 39.62 C0.04 39.62 -1.61 39.62 -3.31 39.62 C-5.33 37.61 -4.48 33.49 -4.48 30.72 C-4.48 29.93 -4.49 29.14 -4.49 28.32 C-4.5 26.64 -4.5 24.96 -4.5 23.28 C-4.5 20.7 -4.52 18.13 -4.54 15.55 C-4.54 13.92 -4.54 12.29 -4.54 10.66 C-4.55 9.89 -4.56 9.11 -4.56 8.31 C-4.53 1.23 -4.53 1.23 0 0 Z " fill="#030403" transform="translate(1246.3125,61.375)"/>
<path d="M0 0 C1.29 0.01 1.29 0.01 2.61 0.01 C4.02 0.02 4.02 0.02 5.45 0.02 C6.43 0.03 7.41 0.04 8.42 0.06 C9.41 0.06 10.39 0.06 11.41 0.06 C18.72 0.1 18.72 0.1 19.86 1.24 C20.02 3.39 20.11 5.54 20.18 7.68 C20.22 8.99 20.26 10.29 20.3 11.64 C20.34 13.03 20.38 14.42 20.42 15.81 C20.47 17.2 20.51 18.59 20.55 19.98 C20.66 23.4 20.76 26.82 20.86 30.24 C17.07 30.27 13.28 30.29 9.49 30.31 C8.41 30.31 7.33 30.32 6.21 30.33 C4.67 30.34 4.67 30.34 3.09 30.34 C2.13 30.35 1.18 30.35 0.2 30.36 C-2.14 30.24 -2.14 30.24 -4.14 29.24 C-4.2 24.78 -4.23 20.33 -4.26 15.87 C-4.28 14.6 -4.3 13.33 -4.31 12.02 C-4.32 10.8 -4.33 9.59 -4.33 8.34 C-4.35 6.66 -4.35 6.66 -4.37 4.95 C-4.09 1.61 -3.44 0.39 0 0 Z " fill="#000100" transform="translate(641.138916015625,83.757080078125)"/>
<path d="M0 0 C1.87 -0 1.87 -0 3.78 -0.01 C5.75 0 5.75 0 7.75 0.02 C9.06 0.01 10.37 0 11.72 -0.01 C12.97 -0.01 14.21 -0 15.5 0 C16.65 0 17.8 0 18.98 0.01 C21.75 0.27 21.75 0.27 23.75 2.27 C23.42 3.59 23.09 4.91 22.75 6.27 C19.45 6.27 16.15 6.27 12.75 6.27 C12.76 7.71 12.76 7.71 12.77 9.19 C12.78 12.75 12.8 16.32 12.8 19.88 C12.81 21.43 12.82 22.97 12.83 24.52 C12.84 26.73 12.84 28.95 12.85 31.17 C12.85 31.86 12.86 32.56 12.86 33.27 C12.86 34.94 12.81 36.6 12.75 38.27 C11.75 39.27 11.75 39.27 8.75 39.39 C5.75 39.27 5.75 39.27 4.75 38.27 C4.59 35.98 4.5 33.68 4.43 31.39 C4.41 30.7 4.39 30.01 4.37 29.31 C4.31 27.11 4.25 24.9 4.19 22.7 C4.14 21.21 4.1 19.73 4.06 18.24 C3.95 14.58 3.85 10.92 3.75 7.27 C3.05 7.24 2.35 7.21 1.63 7.19 C0.72 7.13 -0.19 7.07 -1.12 7.02 C-2.48 6.95 -2.48 6.95 -3.87 6.88 C-6.25 6.27 -6.25 6.27 -7.57 4.22 C-7.79 3.57 -8.02 2.93 -8.25 2.27 C-5.49 -0.49 -3.86 0.01 0 0 Z " fill="#030403" transform="translate(1215.25,61.734375)"/>
<path d="M0 0 C1.32 0 2.64 0 4 0 C8.49 4.85 8.59 9.22 8.44 15.62 C8.44 16.47 8.45 17.32 8.46 18.19 C8.42 21.82 8.36 24.33 6.63 27.56 C5 29 5 29 2.5 29.38 C0 29 0 29 -3 27 C-4.09 24.09 -4.12 21.32 -4.1 18.23 C-4.09 17.34 -4.09 16.46 -4.09 15.54 C-4.08 14.16 -4.08 14.16 -4.06 12.75 C-4.06 11.81 -4.05 10.88 -4.05 9.91 C-4.04 7.61 -4.02 5.3 -4 3 C-3.34 2.67 -2.68 2.34 -2 2 C-1.34 1.34 -0.68 0.68 0 0 Z " fill="#010201" transform="translate(332,159)"/>
<path d="M0 0 C2.57 0.17 3.97 0.98 6.11 2.43 C9.03 6.39 8.54 10.21 8.44 15 C8.44 15.9 8.45 16.8 8.46 17.73 C8.39 25.35 8.39 25.35 5 29 C2.56 29.62 2.56 29.62 0 29 C-4.63 23.84 -4.5 19.34 -4.25 12.62 C-4.23 11.7 -4.21 10.77 -4.2 9.82 C-4.15 7.54 -4.08 5.27 -4 3 C-3.34 2.67 -2.68 2.34 -2 2 C-1.34 1.34 -0.68 0.68 0 0 Z " fill="#010201" transform="translate(308,159)"/>
<path d="M0 0 C5.88 1.88 5.88 1.88 7 3 C7.25 6.97 7.19 10.96 7.19 14.94 C7.2 16.06 7.21 17.18 7.22 18.34 C7.23 19.95 7.23 19.95 7.23 21.59 C7.23 22.58 7.24 23.57 7.24 24.59 C7 27 7 27 5 29 C1.5 28.88 1.5 28.88 -2 28 C-4.9 23.72 -4.37 18.97 -4.38 14 C-4.4 13.1 -4.42 12.2 -4.45 11.27 C-4.48 4.62 -4.48 4.62 -1.98 1.38 C-1.32 0.92 -0.67 0.47 0 0 Z " fill="#010201" transform="translate(46,159)"/>
<path d="M0 0 C2.81 1.25 2.81 1.25 3.81 2.25 C4.07 6.22 4 10.21 4 14.19 C4.01 15.31 4.02 16.43 4.04 17.59 C4.04 19.2 4.04 19.2 4.04 20.84 C4.05 21.83 4.05 22.82 4.06 23.84 C3.81 26.25 3.81 26.25 1.81 28.25 C-0.56 28.75 -0.56 28.75 -3.19 28.25 C-7.72 23.17 -7.8 18.68 -7.69 12.06 C-7.7 11.16 -7.72 10.26 -7.73 9.33 C-7.7 2.85 -7.7 2.85 -5.36 0.09 C-3.19 -0.75 -3.19 -0.75 0 0 Z " fill="#010201" transform="translate(25.1875,159.75)"/>
<path d="M0 0 C3.25 0.21 5.34 0.45 7.88 2.56 C9.5 6.08 9.57 9.19 9 13 C7.81 15.5 7.81 15.5 6 17 C3.18 17.49 1.71 17.43 -0.75 15.94 C-2.65 12.99 -2.82 10.48 -3 7 C-1.6 1.6 -1.6 1.6 0 0 Z " fill="#030403" transform="translate(307,212)"/>
<path d="M0 0 C5.44 0.36 5.44 0.36 7.88 3.12 C9.27 6.68 9.41 9.21 9 13 C7.81 15.44 7.81 15.44 6 17 C3.5 17.44 3.5 17.44 1 17 C-1.5 15.12 -1.99 14.04 -3 11 C-3.46 4.74 -3.46 4.74 -1.5 1.56 C-1 1.05 -0.51 0.53 0 0 Z M4 13 C5 15 5 15 5 15 Z " fill="#040403" transform="translate(307,236)"/>
<path d="M0 0 C1.64 1.13 1.64 1.13 3 3 C3.29 5.92 3.29 5.92 3.19 9.19 C3.16 10.27 3.13 11.36 3.11 12.48 C3.07 13.31 3.04 14.14 3 15 C-0.74 17.02 -0.74 17.02 -3.06 16.81 C-5.39 15.83 -6.44 15 -8 13 C-8.4 10.37 -8.4 10.37 -8.38 7.44 C-8.38 6.47 -8.39 5.5 -8.4 4.5 C-8.27 3.67 -8.14 2.85 -8 2 C-4.77 -0.16 -3.75 -0.47 0 0 Z M-7 3 C-6 5 -6 5 -6 5 Z " fill="#040403" transform="translate(50,236)"/>
<path d="M0 0 C3.47 1.49 3.47 1.49 7 3 C7.05 4.77 7.09 6.54 7.12 8.31 C7.15 9.3 7.17 10.28 7.2 11.3 C7 14 7 14 5 17 C2.56 17.38 2.56 17.38 0 17 C-1.97 15.45 -2.88 14.24 -4 12 C-4.59 4.73 -4.59 4.73 -2 1.5 C-1.34 1 -0.68 0.51 0 0 Z " fill="#040504" transform="translate(46,212)"/>
<path d="M0 0 C0.33 0 0.66 0 1 0 C1 45.87 1 91.74 1 139 C0.67 139 0.34 139 0 139 C0 93.13 0 47.26 0 0 Z " fill="#FDFDFD" transform="translate(662,139)"/>
<path d="M0 0 C10.23 0 20.46 0 31 0 C31 0.33 31 0.66 31 1 C20.77 1 10.54 1 0 1 C0 0.67 0 0.34 0 0 Z " fill="#FDFDFD" transform="translate(727,279)"/>
<path d="M0 0 C0.33 0 0.66 0 1 0 C1 8.91 1 17.82 1 27 C0.67 27 0.34 27 0 27 C0 18.09 0 9.18 0 0 Z " fill="#FDFDFD" transform="translate(172,265)"/>
<path d="M0 0 C0.33 0 0.66 0 1 0 C1 8.91 1 17.82 1 27 C0.67 27 0.34 27 0 27 C0 18.09 0 9.18 0 0 Z " fill="#FDFDFD" transform="translate(662,85)"/>
<path d="M0 0 C6.6 0 13.2 0 20 0 C20 0.33 20 0.66 20 1 C13.4 1 6.8 1 0 1 C0 0.67 0 0.34 0 0 Z " fill="#FDFDFD" transform="translate(171,11)"/>
<path d="M0 0 C0.33 0 0.66 0 1 0 C1 4.95 1 9.9 1 15 C0.67 15 0.34 15 0 15 C0 10.05 0 5.1 0 0 Z " fill="#FDFDFD" transform="translate(11,169)"/>
<path d="M0 0 C0.33 0 0.66 0 1 0 C1 3.3 1 6.6 1 10 C0.67 10 0.34 10 0 10 C0 6.7 0 3.4 0 0 Z " fill="#FDFDFD" transform="translate(357,173)"/>
<path d="M0 0 C0.33 0 0.66 0 1 0 C1 1.98 1 3.96 1 6 C0.67 6 0.34 6 0 6 C0 4.02 0 2.04 0 0 Z " fill="#FDFDFD" transform="translate(934,215)"/>
<path d="M0 0 C1.65 0 3.3 0 5 0 C5 0.33 5 0.66 5 1 C3.35 1 1.7 1 0 1 C0 0.67 0 0.34 0 0 Z " fill="#FDFDFD" transform="translate(219,70)"/>
<path d="M0 0 C4 1 4 1 4 1 Z " fill="#FDFDFD" transform="translate(201,353)"/>
<path d="M0 0 C4 1 4 1 4 1 Z " fill="#FDFDFD" transform="translate(152,353)"/>
<path d="" fill="#FDFDFD" transform="translate(0,0)"/>
<path d="M0 0 C3 1 3 1 3 1 Z " fill="#FDFDFD" transform="translate(1141,194)"/>
<path d="" fill="#000100" transform="translate(0,0)"/>
<path d="M0 0 C2 1 2 1 2 1 Z " fill="#FDFDFD" transform="translate(1105,281)"/>
<path d="" fill="#000100" transform="translate(0,0)"/>
<path d="" fill="#000100" transform="translate(0,0)"/>
<path d="M0 0 C2 1 2 1 2 1 Z " fill="#FDFDFD" transform="translate(47,253)"/>
<path d="M0 0 C2 1 2 1 2 1 Z " fill="#FDFDFD" transform="translate(334,229)"/>
<path d="" fill="#FDFDFD" transform="translate(0,0)"/>
<path d="" fill="#000100" transform="translate(0,0)"/>
<path d="M0 0 C2 1 2 1 2 1 Z " fill="#000100" transform="translate(469,95)"/>
<path d="M0 0 C2 1 2 1 2 1 Z " fill="#FDFDFD" transform="translate(198,85)"/>
<path d="M0 0 C2 1 2 1 2 1 Z " fill="#000100" transform="translate(23,82)"/>
<path d="" fill="#FDFDFD" transform="translate(0,0)"/>
<path d="" fill="#FDFDFD" transform="translate(0,0)"/>
<path d="" fill="#FDFDFD" transform="translate(0,0)"/>
<path d="" fill="#FDFDFD" transform="translate(0,0)"/>
<path d="" fill="#FDFDFD" transform="translate(0,0)"/>
<path d="" fill="#000100" transform="translate(0,0)"/>
<path d="" fill="#000100" transform="translate(0,0)"/>
<path d="" fill="#000100" transform="translate(0,0)"/>
<path d="" fill="#000100" transform="translate(0,0)"/>
<path d="" fill="#000100" transform="translate(0,0)"/>
<path d="" fill="#000100" transform="translate(0,0)"/>
<path d="" fill="#000100" transform="translate(0,0)"/>
<path d="" fill="#FDFDFD" transform="translate(0,0)"/>
<path d="" fill="#000100" transform="translate(0,0)"/>
<path d="" fill="#000100" transform="translate(0,0)"/>
<path d="" fill="#000100" transform="translate(0,0)"/>
<path d="" fill="#000100" transform="translate(0,0)"/>
<path d="" fill="#000100" transform="translate(0,0)"/>
<path d="" fill="#000100" transform="translate(0,0)"/>
<path d="" fill="#000100" transform="translate(0,0)"/>
<path d="" fill="#000100" transform="translate(0,0)"/>
<path d="" fill="#000100" transform="translate(0,0)"/>
<path d="" fill="#000100" transform="translate(0,0)"/>
<path d="" fill="#FDFDFD" transform="translate(0,0)"/>
<path d="" fill="#000100" transform="translate(0,0)"/>
<path d="" fill="#FDFDFD" transform="translate(0,0)"/>
<path d="" fill="#000100" transform="translate(0,0)"/>
<path d="" fill="#000100" transform="translate(0,0)"/>
<path d="" fill="#000100" transform="translate(0,0)"/>
<path d="" fill="#000100" transform="translate(0,0)"/>
<path d="" fill="#FDFDFD" transform="translate(0,0)"/>
<path d="" fill="#FDFDFD" transform="translate(0,0)"/>
<path d="" fill="#000100" transform="translate(0,0)"/>
<path d="" fill="#000100" transform="translate(0,0)"/>
<path d="" fill="#FDFDFD" transform="translate(0,0)"/>
<path d="" fill="#FDFDFD" transform="translate(0,0)"/>
<path d="" fill="#000100" transform="translate(0,0)"/>
<path d="" fill="#FDFDFD" transform="translate(0,0)"/>
<path d="" fill="#000100" transform="translate(0,0)"/>
<path d="" fill="#000100" transform="translate(0,0)"/>
<path d="" fill="#FDFDFD" transform="translate(0,0)"/>
<path d="" fill="#FDFDFD" transform="translate(0,0)"/>
<path d="" fill="#000100" transform="translate(0,0)"/>
<path d="" fill="#000100" transform="translate(0,0)"/>
<path d="" fill="#000100" transform="translate(0,0)"/>
<path d="" fill="#FDFDFD" transform="translate(0,0)"/>
<path d="" fill="#FDFDFD" transform="translate(0,0)"/>
<path d="" fill="#000100" transform="translate(0,0)"/>
<path d="" fill="#FDFDFD" transform="translate(0,0)"/>
<path d="" fill="#000100" transform="translate(0,0)"/>
<path d="" fill="#000100" transform="translate(0,0)"/>
<path d="" fill="#000100" transform="translate(0,0)"/>
<path d="" fill="#FDFDFD" transform="translate(0,0)"/>
<path d="" fill="#FDFDFD" transform="translate(0,0)"/>
<path d="" fill="#ADADAB" transform="translate(0,0)"/>
<path d="" fill="#FDFDFD" transform="translate(0,0)"/>
<path d="" fill="#ADADAB" transform="translate(0,0)"/>
<path d="" fill="#ADADAB" transform="translate(0,0)"/>
<path d="" fill="#FDFDFD" transform="translate(0,0)"/>
<path d="" fill="#000100" transform="translate(0,0)"/>
<path d="" fill="#000100" transform="translate(0,0)"/>
<path d="" fill="#ADADAB" transform="translate(0,0)"/>
<path d="" fill="#FDFDFD" transform="translate(0,0)"/>
<path d="" fill="#000100" transform="translate(0,0)"/>
<path d="" fill="#464544" transform="translate(0,0)"/>
<path d="" fill="#FDFDFD" transform="translate(0,0)"/>
<path d="" fill="#000100" transform="translate(0,0)"/>
<path d="" fill="#000100" transform="translate(0,0)"/>
<path d="" fill="#464544" transform="translate(0,0)"/>
<path d="" fill="#FDFDFD" transform="translate(0,0)"/>
<path d="" fill="#000100" transform="translate(0,0)"/>
<path d="" fill="#000100" transform="translate(0,0)"/>
<path d="" fill="#000100" transform="translate(0,0)"/>
<path d="" fill="#000100" transform="translate(0,0)"/>
<path d="" fill="#000100" transform="translate(0,0)"/>
<path d="" fill="#000100" transform="translate(0,0)"/>
<path d="" fill="#ADADAB" transform="translate(0,0)"/>
<path d="" fill="#ADADAB" transform="translate(0,0)"/>
<path d="" fill="#000100" transform="translate(0,0)"/>
<path d="" fill="#000100" transform="translate(0,0)"/>
<path d="" fill="#FDFDFD" transform="translate(0,0)"/>
<path d="" fill="#000100" transform="translate(0,0)"/>
</svg>
